<mxfile host="www.draw.io" modified="2020-04-04T01:48:50.452Z" agent="5.0 (Macintosh; Intel Mac OS X 10_15_3) AppleWebKit/537.36 (KHTML, like Gecko) Chrome/80.0.3987.149 Safari/537.36" etag="Cn4ZdN7hEszPIEKeFYTR" version="12.9.5" type="github" pages="4">
  <diagram id="nvIcJrDGoMgyBf4AQdr5" name="3DPointConfiguration">
    <mxGraphModel dx="965" dy="564" grid="1" gridSize="10" guides="1" tooltips="1" connect="1" arrows="1" fold="1" page="1" pageScale="1" pageWidth="2400" pageHeight="2400" math="0" shadow="0">
      <root>
        <mxCell id="0" />
        <mxCell id="1" parent="0" />
        <mxCell id="vM847BDnY2Y7-K3CfBTw-48" value="" style="verticalLabelPosition=bottom;verticalAlign=top;html=1;shape=mxgraph.basic.orthogonal_triangle;fillColor=#E6E6E6;rotation=45;strokeColor=none;" vertex="1" parent="1">
          <mxGeometry x="1032" y="483.31" width="14.5" height="14" as="geometry" />
        </mxCell>
        <mxCell id="vM847BDnY2Y7-K3CfBTw-47" value="" style="verticalLabelPosition=bottom;verticalAlign=top;html=1;shape=mxgraph.basic.orthogonal_triangle;fillColor=#E6E6E6;strokeColor=none;rotation=90;" vertex="1" parent="1">
          <mxGeometry x="880" y="640" width="20" height="20" as="geometry" />
        </mxCell>
        <mxCell id="vM847BDnY2Y7-K3CfBTw-44" value="" style="rounded=0;whiteSpace=wrap;html=1;fillColor=#E6E6E6;rotation=-45;strokeColor=none;" vertex="1" parent="1">
          <mxGeometry x="847.23" y="565.61" width="219.91" height="14.16" as="geometry" />
        </mxCell>
        <mxCell id="vM847BDnY2Y7-K3CfBTw-40" value="" style="verticalLabelPosition=bottom;verticalAlign=top;html=1;shape=mxgraph.basic.orthogonal_triangle;fillColor=#E6E6E6;rotation=-90;strokeColor=none;fontStyle=1" vertex="1" parent="1">
          <mxGeometry x="560.5" y="480.5" width="159.5" height="159.5" as="geometry" />
        </mxCell>
        <mxCell id="vM847BDnY2Y7-K3CfBTw-37" value="" style="rounded=0;whiteSpace=wrap;html=1;fillColor=#E6E6E6;strokeColor=none;fontStyle=1" vertex="1" parent="1">
          <mxGeometry x="720" y="480" width="160" height="160" as="geometry" />
        </mxCell>
        <mxCell id="vM847BDnY2Y7-K3CfBTw-39" value="" style="verticalLabelPosition=bottom;verticalAlign=top;html=1;shape=mxgraph.basic.orthogonal_triangle;fillColor=#E6E6E6;rotation=90;strokeColor=none;fontStyle=1" vertex="1" parent="1">
          <mxGeometry x="880" y="480.5" width="159.5" height="159.5" as="geometry" />
        </mxCell>
        <mxCell id="vM847BDnY2Y7-K3CfBTw-11" value="" style="endArrow=none;html=1;strokeWidth=2;" edge="1" parent="1">
          <mxGeometry width="50" height="50" relative="1" as="geometry">
            <mxPoint x="880" y="640" as="sourcePoint" />
            <mxPoint x="560" y="640" as="targetPoint" />
          </mxGeometry>
        </mxCell>
        <mxCell id="vM847BDnY2Y7-K3CfBTw-12" value="" style="endArrow=none;html=1;strokeWidth=2;" edge="1" parent="1">
          <mxGeometry width="50" height="50" relative="1" as="geometry">
            <mxPoint x="1040" y="480" as="sourcePoint" />
            <mxPoint x="720" y="480" as="targetPoint" />
          </mxGeometry>
        </mxCell>
        <mxCell id="vM847BDnY2Y7-K3CfBTw-13" value="" style="endArrow=none;html=1;strokeWidth=2;" edge="1" parent="1">
          <mxGeometry width="50" height="50" relative="1" as="geometry">
            <mxPoint x="560" y="640" as="sourcePoint" />
            <mxPoint x="720" y="480" as="targetPoint" />
          </mxGeometry>
        </mxCell>
        <mxCell id="vM847BDnY2Y7-K3CfBTw-14" value="" style="endArrow=none;html=1;strokeWidth=2;" edge="1" parent="1">
          <mxGeometry width="50" height="50" relative="1" as="geometry">
            <mxPoint x="880" y="640" as="sourcePoint" />
            <mxPoint x="1040" y="480" as="targetPoint" />
          </mxGeometry>
        </mxCell>
        <mxCell id="vM847BDnY2Y7-K3CfBTw-15" value="" style="endArrow=none;html=1;strokeWidth=2;" edge="1" parent="1">
          <mxGeometry width="50" height="50" relative="1" as="geometry">
            <mxPoint x="560" y="640" as="sourcePoint" />
            <mxPoint x="560" y="320" as="targetPoint" />
          </mxGeometry>
        </mxCell>
        <mxCell id="vM847BDnY2Y7-K3CfBTw-16" value="" style="endArrow=none;html=1;strokeWidth=2;" edge="1" parent="1">
          <mxGeometry width="50" height="50" relative="1" as="geometry">
            <mxPoint x="880" y="640" as="sourcePoint" />
            <mxPoint x="880" y="320" as="targetPoint" />
          </mxGeometry>
        </mxCell>
        <mxCell id="vM847BDnY2Y7-K3CfBTw-17" value="" style="endArrow=none;html=1;strokeWidth=2;" edge="1" parent="1">
          <mxGeometry width="50" height="50" relative="1" as="geometry">
            <mxPoint x="720" y="480" as="sourcePoint" />
            <mxPoint x="720" y="160" as="targetPoint" />
          </mxGeometry>
        </mxCell>
        <mxCell id="vM847BDnY2Y7-K3CfBTw-18" value="" style="endArrow=none;html=1;strokeWidth=2;" edge="1" parent="1">
          <mxGeometry width="50" height="50" relative="1" as="geometry">
            <mxPoint x="1040" y="500" as="sourcePoint" />
            <mxPoint x="1040" y="160" as="targetPoint" />
          </mxGeometry>
        </mxCell>
        <mxCell id="vM847BDnY2Y7-K3CfBTw-20" value="" style="endArrow=none;html=1;strokeWidth=2;" edge="1" parent="1">
          <mxGeometry width="50" height="50" relative="1" as="geometry">
            <mxPoint x="560" y="320" as="sourcePoint" />
            <mxPoint x="720" y="160" as="targetPoint" />
          </mxGeometry>
        </mxCell>
        <mxCell id="vM847BDnY2Y7-K3CfBTw-21" value="" style="endArrow=none;html=1;strokeWidth=2;" edge="1" parent="1">
          <mxGeometry width="50" height="50" relative="1" as="geometry">
            <mxPoint x="880" y="320" as="sourcePoint" />
            <mxPoint x="1040" y="160" as="targetPoint" />
          </mxGeometry>
        </mxCell>
        <mxCell id="vM847BDnY2Y7-K3CfBTw-22" value="" style="endArrow=none;html=1;strokeWidth=2;" edge="1" parent="1">
          <mxGeometry width="50" height="50" relative="1" as="geometry">
            <mxPoint x="1040" y="160" as="sourcePoint" />
            <mxPoint x="720" y="160" as="targetPoint" />
          </mxGeometry>
        </mxCell>
        <mxCell id="vM847BDnY2Y7-K3CfBTw-23" value="" style="endArrow=none;html=1;strokeWidth=2;" edge="1" parent="1">
          <mxGeometry width="50" height="50" relative="1" as="geometry">
            <mxPoint x="880" y="320" as="sourcePoint" />
            <mxPoint x="560" y="320" as="targetPoint" />
          </mxGeometry>
        </mxCell>
        <mxCell id="vM847BDnY2Y7-K3CfBTw-24" value="" style="ellipse;whiteSpace=wrap;html=1;aspect=fixed;fillColor=#EA4335;strokeColor=none;" vertex="1" parent="1">
          <mxGeometry x="750" y="430" width="20" height="20" as="geometry" />
        </mxCell>
        <mxCell id="vM847BDnY2Y7-K3CfBTw-27" value="" style="endArrow=none;dashed=1;html=1;fillColor=#f8cecc;strokeColor=#EA4335;strokeWidth=2;" edge="1" parent="1">
          <mxGeometry width="50" height="50" relative="1" as="geometry">
            <mxPoint x="640" y="560" as="sourcePoint" />
            <mxPoint x="760" y="560" as="targetPoint" />
          </mxGeometry>
        </mxCell>
        <mxCell id="vM847BDnY2Y7-K3CfBTw-28" value="" style="endArrow=none;dashed=1;html=1;fillColor=#f8cecc;strokeColor=#EA4335;strokeWidth=2;" edge="1" parent="1">
          <mxGeometry width="50" height="50" relative="1" as="geometry">
            <mxPoint x="759.5" y="560" as="sourcePoint" />
            <mxPoint x="759.5" y="450" as="targetPoint" />
          </mxGeometry>
        </mxCell>
        <mxCell id="vM847BDnY2Y7-K3CfBTw-29" value="" style="endArrow=none;dashed=1;html=1;strokeColor=#EA4335;strokeWidth=2;" edge="1" parent="1">
          <mxGeometry width="50" height="50" relative="1" as="geometry">
            <mxPoint x="680" y="640" as="sourcePoint" />
            <mxPoint x="760" y="560" as="targetPoint" />
          </mxGeometry>
        </mxCell>
        <mxCell id="vM847BDnY2Y7-K3CfBTw-30" value="&lt;font color=&quot;#ea4335&quot; style=&quot;font-size: 20px&quot;&gt;(x,y,z)&lt;/font&gt;" style="text;html=1;strokeColor=none;fillColor=none;align=center;verticalAlign=middle;whiteSpace=wrap;rounded=0;" vertex="1" parent="1">
          <mxGeometry x="780" y="430" width="40" height="20" as="geometry" />
        </mxCell>
        <mxCell id="vM847BDnY2Y7-K3CfBTw-41" value="" style="rounded=0;whiteSpace=wrap;html=1;fillColor=#E6E6E6;strokeWidth=2;" vertex="1" parent="1">
          <mxGeometry x="560" y="640" width="320" height="20" as="geometry" />
        </mxCell>
        <mxCell id="vM847BDnY2Y7-K3CfBTw-46" value="" style="endArrow=none;html=1;strokeWidth=2;" edge="1" parent="1">
          <mxGeometry width="50" height="50" relative="1" as="geometry">
            <mxPoint x="880" y="660" as="sourcePoint" />
            <mxPoint x="1040" y="500" as="targetPoint" />
          </mxGeometry>
        </mxCell>
      </root>
    </mxGraphModel>
  </diagram>
  <diagram name="3DCubeConfiguration" id="qvFkaabtAtWG2TR0Nzbx">
    <mxGraphModel dx="1103" dy="644" grid="1" gridSize="10" guides="1" tooltips="1" connect="1" arrows="1" fold="1" page="1" pageScale="1" pageWidth="2400" pageHeight="2400" math="0" shadow="0">
      <root>
        <mxCell id="wTvtxUom0htXqcZkhXqR-0" />
        <mxCell id="wTvtxUom0htXqcZkhXqR-1" parent="wTvtxUom0htXqcZkhXqR-0" />
        <mxCell id="wTvtxUom0htXqcZkhXqR-41" value="" style="whiteSpace=wrap;html=1;aspect=fixed;fillColor=#FFFFFF;strokeColor=#EA4335;strokeWidth=3;" vertex="1" parent="wTvtxUom0htXqcZkhXqR-1">
          <mxGeometry x="760" y="400" width="40" height="40" as="geometry" />
        </mxCell>
        <mxCell id="wTvtxUom0htXqcZkhXqR-2" value="" style="verticalLabelPosition=bottom;verticalAlign=top;html=1;shape=mxgraph.basic.orthogonal_triangle;fillColor=#E6E6E6;rotation=45;strokeColor=none;" vertex="1" parent="wTvtxUom0htXqcZkhXqR-1">
          <mxGeometry x="1032" y="483.31" width="14.5" height="14" as="geometry" />
        </mxCell>
        <mxCell id="wTvtxUom0htXqcZkhXqR-3" value="" style="verticalLabelPosition=bottom;verticalAlign=top;html=1;shape=mxgraph.basic.orthogonal_triangle;fillColor=#E6E6E6;strokeColor=none;rotation=90;" vertex="1" parent="wTvtxUom0htXqcZkhXqR-1">
          <mxGeometry x="880" y="640" width="20" height="20" as="geometry" />
        </mxCell>
        <mxCell id="wTvtxUom0htXqcZkhXqR-4" value="" style="rounded=0;whiteSpace=wrap;html=1;fillColor=#E6E6E6;rotation=-45;strokeColor=none;" vertex="1" parent="wTvtxUom0htXqcZkhXqR-1">
          <mxGeometry x="847.23" y="565.61" width="219.91" height="14.16" as="geometry" />
        </mxCell>
        <mxCell id="wTvtxUom0htXqcZkhXqR-5" value="" style="verticalLabelPosition=bottom;verticalAlign=top;html=1;shape=mxgraph.basic.orthogonal_triangle;fillColor=#E6E6E6;rotation=-90;strokeColor=none;fontStyle=1" vertex="1" parent="wTvtxUom0htXqcZkhXqR-1">
          <mxGeometry x="560.5" y="480.5" width="159.5" height="159.5" as="geometry" />
        </mxCell>
        <mxCell id="wTvtxUom0htXqcZkhXqR-6" value="" style="rounded=0;whiteSpace=wrap;html=1;fillColor=#E6E6E6;strokeColor=none;fontStyle=1" vertex="1" parent="wTvtxUom0htXqcZkhXqR-1">
          <mxGeometry x="720" y="480" width="160" height="160" as="geometry" />
        </mxCell>
        <mxCell id="wTvtxUom0htXqcZkhXqR-7" value="" style="verticalLabelPosition=bottom;verticalAlign=top;html=1;shape=mxgraph.basic.orthogonal_triangle;fillColor=#E6E6E6;rotation=90;strokeColor=none;fontStyle=1" vertex="1" parent="wTvtxUom0htXqcZkhXqR-1">
          <mxGeometry x="880" y="480.5" width="159.5" height="159.5" as="geometry" />
        </mxCell>
        <mxCell id="wTvtxUom0htXqcZkhXqR-8" value="" style="endArrow=none;html=1;" edge="1" parent="wTvtxUom0htXqcZkhXqR-1">
          <mxGeometry width="50" height="50" relative="1" as="geometry">
            <mxPoint x="880" y="640" as="sourcePoint" />
            <mxPoint x="560" y="640" as="targetPoint" />
          </mxGeometry>
        </mxCell>
        <mxCell id="wTvtxUom0htXqcZkhXqR-9" value="" style="endArrow=none;html=1;strokeWidth=2;" edge="1" parent="wTvtxUom0htXqcZkhXqR-1">
          <mxGeometry width="50" height="50" relative="1" as="geometry">
            <mxPoint x="1040" y="480" as="sourcePoint" />
            <mxPoint x="720" y="480" as="targetPoint" />
          </mxGeometry>
        </mxCell>
        <mxCell id="wTvtxUom0htXqcZkhXqR-10" value="" style="endArrow=none;html=1;strokeWidth=2;" edge="1" parent="wTvtxUom0htXqcZkhXqR-1">
          <mxGeometry width="50" height="50" relative="1" as="geometry">
            <mxPoint x="560" y="640" as="sourcePoint" />
            <mxPoint x="720" y="480" as="targetPoint" />
          </mxGeometry>
        </mxCell>
        <mxCell id="wTvtxUom0htXqcZkhXqR-11" value="" style="endArrow=none;html=1;strokeWidth=2;" edge="1" parent="wTvtxUom0htXqcZkhXqR-1">
          <mxGeometry width="50" height="50" relative="1" as="geometry">
            <mxPoint x="880" y="640" as="sourcePoint" />
            <mxPoint x="1040" y="480" as="targetPoint" />
          </mxGeometry>
        </mxCell>
        <mxCell id="wTvtxUom0htXqcZkhXqR-12" value="" style="endArrow=none;html=1;strokeWidth=2;" edge="1" parent="wTvtxUom0htXqcZkhXqR-1">
          <mxGeometry width="50" height="50" relative="1" as="geometry">
            <mxPoint x="560" y="640" as="sourcePoint" />
            <mxPoint x="560" y="320" as="targetPoint" />
          </mxGeometry>
        </mxCell>
        <mxCell id="wTvtxUom0htXqcZkhXqR-13" value="" style="endArrow=none;html=1;" edge="1" parent="wTvtxUom0htXqcZkhXqR-1">
          <mxGeometry width="50" height="50" relative="1" as="geometry">
            <mxPoint x="880" y="640" as="sourcePoint" />
            <mxPoint x="880" y="320" as="targetPoint" />
          </mxGeometry>
        </mxCell>
        <mxCell id="wTvtxUom0htXqcZkhXqR-14" value="" style="endArrow=none;html=1;strokeWidth=2;" edge="1" parent="wTvtxUom0htXqcZkhXqR-1">
          <mxGeometry width="50" height="50" relative="1" as="geometry">
            <mxPoint x="720" y="480" as="sourcePoint" />
            <mxPoint x="720" y="160" as="targetPoint" />
          </mxGeometry>
        </mxCell>
        <mxCell id="wTvtxUom0htXqcZkhXqR-15" value="" style="endArrow=none;html=1;strokeWidth=2;" edge="1" parent="wTvtxUom0htXqcZkhXqR-1">
          <mxGeometry width="50" height="50" relative="1" as="geometry">
            <mxPoint x="1040" y="500" as="sourcePoint" />
            <mxPoint x="1040" y="160" as="targetPoint" />
          </mxGeometry>
        </mxCell>
        <mxCell id="wTvtxUom0htXqcZkhXqR-16" value="" style="endArrow=none;html=1;strokeWidth=2;" edge="1" parent="wTvtxUom0htXqcZkhXqR-1">
          <mxGeometry width="50" height="50" relative="1" as="geometry">
            <mxPoint x="560" y="320" as="sourcePoint" />
            <mxPoint x="720" y="160" as="targetPoint" />
          </mxGeometry>
        </mxCell>
        <mxCell id="wTvtxUom0htXqcZkhXqR-17" value="" style="endArrow=none;html=1;strokeWidth=2;" edge="1" parent="wTvtxUom0htXqcZkhXqR-1">
          <mxGeometry width="50" height="50" relative="1" as="geometry">
            <mxPoint x="880" y="320" as="sourcePoint" />
            <mxPoint x="1040" y="160" as="targetPoint" />
          </mxGeometry>
        </mxCell>
        <mxCell id="wTvtxUom0htXqcZkhXqR-18" value="" style="endArrow=none;html=1;strokeWidth=2;" edge="1" parent="wTvtxUom0htXqcZkhXqR-1">
          <mxGeometry width="50" height="50" relative="1" as="geometry">
            <mxPoint x="1040" y="160" as="sourcePoint" />
            <mxPoint x="720" y="160" as="targetPoint" />
          </mxGeometry>
        </mxCell>
        <mxCell id="wTvtxUom0htXqcZkhXqR-19" value="" style="endArrow=none;html=1;strokeWidth=2;" edge="1" parent="wTvtxUom0htXqcZkhXqR-1">
          <mxGeometry width="50" height="50" relative="1" as="geometry">
            <mxPoint x="880" y="320" as="sourcePoint" />
            <mxPoint x="560" y="320" as="targetPoint" />
          </mxGeometry>
        </mxCell>
        <mxCell id="wTvtxUom0htXqcZkhXqR-21" value="" style="endArrow=none;dashed=1;html=1;fillColor=#f8cecc;strokeColor=#EA4335;strokeWidth=2;" edge="1" parent="wTvtxUom0htXqcZkhXqR-1">
          <mxGeometry width="50" height="50" relative="1" as="geometry">
            <mxPoint x="640" y="560" as="sourcePoint" />
            <mxPoint x="760" y="560" as="targetPoint" />
          </mxGeometry>
        </mxCell>
        <mxCell id="wTvtxUom0htXqcZkhXqR-22" value="" style="endArrow=none;dashed=1;html=1;fillColor=#f8cecc;strokeColor=#EA4335;strokeWidth=2;" edge="1" parent="wTvtxUom0htXqcZkhXqR-1">
          <mxGeometry width="50" height="50" relative="1" as="geometry">
            <mxPoint x="759.5" y="560" as="sourcePoint" />
            <mxPoint x="760" y="440" as="targetPoint" />
          </mxGeometry>
        </mxCell>
        <mxCell id="wTvtxUom0htXqcZkhXqR-23" value="" style="endArrow=none;dashed=1;html=1;strokeColor=#EA4335;strokeWidth=2;" edge="1" parent="wTvtxUom0htXqcZkhXqR-1">
          <mxGeometry width="50" height="50" relative="1" as="geometry">
            <mxPoint x="680" y="640" as="sourcePoint" />
            <mxPoint x="760" y="560" as="targetPoint" />
          </mxGeometry>
        </mxCell>
        <mxCell id="wTvtxUom0htXqcZkhXqR-24" value="&lt;font color=&quot;#ea4335&quot; style=&quot;font-size: 20px&quot;&gt;(x,y,z,&lt;br&gt;&lt;span style=&quot;font-family: sans-serif ; text-align: left ; background-color: rgb(255 , 255 , 255)&quot;&gt;&lt;font style=&quot;font-size: 20px&quot;&gt;α, β, γ&lt;/font&gt;&lt;/span&gt;)&lt;/font&gt;" style="text;html=1;strokeColor=none;fillColor=none;align=center;verticalAlign=middle;whiteSpace=wrap;rounded=0;" vertex="1" parent="wTvtxUom0htXqcZkhXqR-1">
          <mxGeometry x="800" y="444" width="80" height="20" as="geometry" />
        </mxCell>
        <mxCell id="wTvtxUom0htXqcZkhXqR-25" value="" style="rounded=0;whiteSpace=wrap;html=1;fillColor=#E6E6E6;strokeWidth=2;" vertex="1" parent="wTvtxUom0htXqcZkhXqR-1">
          <mxGeometry x="560" y="640" width="320" height="20" as="geometry" />
        </mxCell>
        <mxCell id="wTvtxUom0htXqcZkhXqR-26" value="" style="endArrow=none;html=1;strokeWidth=2;" edge="1" parent="wTvtxUom0htXqcZkhXqR-1">
          <mxGeometry width="50" height="50" relative="1" as="geometry">
            <mxPoint x="880" y="660" as="sourcePoint" />
            <mxPoint x="1040" y="500" as="targetPoint" />
          </mxGeometry>
        </mxCell>
        <mxCell id="wTvtxUom0htXqcZkhXqR-42" value="" style="whiteSpace=wrap;html=1;aspect=fixed;fillColor=none;strokeColor=#EA4335;strokeWidth=3;" vertex="1" parent="wTvtxUom0htXqcZkhXqR-1">
          <mxGeometry x="780" y="380" width="40" height="40" as="geometry" />
        </mxCell>
        <mxCell id="wTvtxUom0htXqcZkhXqR-43" value="" style="endArrow=none;html=1;strokeColor=#EA4335;entryX=0;entryY=0;entryDx=0;entryDy=0;exitX=0;exitY=0;exitDx=0;exitDy=0;strokeWidth=3;" edge="1" parent="wTvtxUom0htXqcZkhXqR-1" source="wTvtxUom0htXqcZkhXqR-41" target="wTvtxUom0htXqcZkhXqR-42">
          <mxGeometry width="50" height="50" relative="1" as="geometry">
            <mxPoint x="740" y="430" as="sourcePoint" />
            <mxPoint x="790" y="380" as="targetPoint" />
          </mxGeometry>
        </mxCell>
        <mxCell id="wTvtxUom0htXqcZkhXqR-44" value="" style="endArrow=none;html=1;strokeColor=#EA4335;entryX=1;entryY=0;entryDx=0;entryDy=0;exitX=1;exitY=0;exitDx=0;exitDy=0;strokeWidth=3;" edge="1" parent="wTvtxUom0htXqcZkhXqR-1" source="wTvtxUom0htXqcZkhXqR-41" target="wTvtxUom0htXqcZkhXqR-42">
          <mxGeometry width="50" height="50" relative="1" as="geometry">
            <mxPoint x="770" y="410.0000000000001" as="sourcePoint" />
            <mxPoint x="790" y="390.0000000000001" as="targetPoint" />
          </mxGeometry>
        </mxCell>
        <mxCell id="wTvtxUom0htXqcZkhXqR-45" value="" style="endArrow=none;html=1;strokeColor=#EA4335;entryX=1;entryY=1;entryDx=0;entryDy=0;exitX=1;exitY=1;exitDx=0;exitDy=0;strokeWidth=3;" edge="1" parent="wTvtxUom0htXqcZkhXqR-1" source="wTvtxUom0htXqcZkhXqR-41" target="wTvtxUom0htXqcZkhXqR-42">
          <mxGeometry width="50" height="50" relative="1" as="geometry">
            <mxPoint x="810" y="440.0000000000001" as="sourcePoint" />
            <mxPoint x="830" y="420.0000000000001" as="targetPoint" />
          </mxGeometry>
        </mxCell>
        <mxCell id="wTvtxUom0htXqcZkhXqR-46" value="" style="endArrow=none;html=1;strokeColor=#EA4335;entryX=0;entryY=1;entryDx=0;entryDy=0;exitX=0;exitY=1;exitDx=0;exitDy=0;strokeWidth=3;" edge="1" parent="wTvtxUom0htXqcZkhXqR-1" source="wTvtxUom0htXqcZkhXqR-41" target="wTvtxUom0htXqcZkhXqR-42">
          <mxGeometry width="50" height="50" relative="1" as="geometry">
            <mxPoint x="770" y="440.0000000000001" as="sourcePoint" />
            <mxPoint x="790" y="420.0000000000001" as="targetPoint" />
          </mxGeometry>
        </mxCell>
        <mxCell id="wTvtxUom0htXqcZkhXqR-47" value="" style="ellipse;whiteSpace=wrap;html=1;aspect=fixed;strokeColor=#EA4335;strokeWidth=3;fillColor=#EA4335;" vertex="1" parent="wTvtxUom0htXqcZkhXqR-1">
          <mxGeometry x="757" y="437" width="7" height="7" as="geometry" />
        </mxCell>
      </root>
    </mxGraphModel>
  </diagram>
  <diagram id="is3KhA4sm_xZZh0mKpBA" name="OGMlowres">
    <mxGraphModel dx="908" dy="531" grid="1" gridSize="10" guides="1" tooltips="1" connect="1" arrows="1" fold="1" page="1" pageScale="1" pageWidth="2400" pageHeight="2400" math="0" shadow="0" extFonts="Computer Modern^https://fonts.googleapis.com/css?family=Computer+Modern">
      <root>
        <mxCell id="SEfvn8J4_IVvISTcuMCb-0" />
        <mxCell id="SEfvn8J4_IVvISTcuMCb-1" parent="SEfvn8J4_IVvISTcuMCb-0" />
        <mxCell id="SEfvn8J4_IVvISTcuMCb-28" value="" style="group;opacity=50;" vertex="1" connectable="0" parent="SEfvn8J4_IVvISTcuMCb-1">
          <mxGeometry x="650" y="630" width="360" height="350" as="geometry" />
        </mxCell>
        <mxCell id="SEfvn8J4_IVvISTcuMCb-34" value="" style="group" vertex="1" connectable="0" parent="SEfvn8J4_IVvISTcuMCb-28">
          <mxGeometry x="128.59252531694165" y="50.00382424228599" width="202.8057860645033" height="238.40681085232495" as="geometry" />
        </mxCell>
        <mxCell id="SEfvn8J4_IVvISTcuMCb-29" value="" style="ellipse;whiteSpace=wrap;html=1;strokeColor=none;strokeWidth=2;fillColor=#4285F4;fontSize=20;" vertex="1" parent="SEfvn8J4_IVvISTcuMCb-34">
          <mxGeometry x="4.497474683058272" y="4.166175757713972" width="120" height="80" as="geometry" />
        </mxCell>
        <mxCell id="SEfvn8J4_IVvISTcuMCb-30" value="" style="ellipse;whiteSpace=wrap;html=1;strokeColor=none;strokeWidth=2;fillColor=#4285F4;fontSize=20;rotation=30;" vertex="1" parent="SEfvn8J4_IVvISTcuMCb-34">
          <mxGeometry x="24.49747468305827" y="34.16617575771397" width="120" height="80" as="geometry" />
        </mxCell>
        <mxCell id="SEfvn8J4_IVvISTcuMCb-31" value="" style="ellipse;whiteSpace=wrap;html=1;strokeColor=none;strokeWidth=2;fillColor=#4285F4;fontSize=20;rotation=-15;" vertex="1" parent="SEfvn8J4_IVvISTcuMCb-34">
          <mxGeometry x="74.49747468305827" y="14.166175757713972" width="120" height="80" as="geometry" />
        </mxCell>
        <mxCell id="SEfvn8J4_IVvISTcuMCb-32" value="" style="ellipse;whiteSpace=wrap;html=1;strokeColor=none;strokeWidth=2;fillColor=#4285F4;fontSize=20;rotation=-45;" vertex="1" parent="SEfvn8J4_IVvISTcuMCb-34">
          <mxGeometry x="4.497474683058272" y="104.16617575771397" width="90" height="50" as="geometry" />
        </mxCell>
        <mxCell id="SEfvn8J4_IVvISTcuMCb-33" value="" style="ellipse;whiteSpace=wrap;html=1;strokeColor=none;strokeWidth=2;fillColor=#4285F4;fontSize=20;rotation=30;" vertex="1" parent="SEfvn8J4_IVvISTcuMCb-34">
          <mxGeometry x="8.567474683058208" y="148.96617575771393" width="171.16" height="50" as="geometry" />
        </mxCell>
        <mxCell id="SEfvn8J4_IVvISTcuMCb-36" value="" style="whiteSpace=wrap;html=1;aspect=fixed;strokeWidth=2;opacity=50;fillColor=#EA4335;strokeColor=#000000;" vertex="1" parent="SEfvn8J4_IVvISTcuMCb-34">
          <mxGeometry x="61.40747468305835" y="-40.00382424228599" width="80" height="80" as="geometry" />
        </mxCell>
        <mxCell id="SEfvn8J4_IVvISTcuMCb-2" value="" style="whiteSpace=wrap;html=1;aspect=fixed;strokeWidth=2;fillColor=none;" vertex="1" parent="SEfvn8J4_IVvISTcuMCb-28">
          <mxGeometry x="30" y="10" width="80" height="80" as="geometry" />
        </mxCell>
        <mxCell id="SEfvn8J4_IVvISTcuMCb-5" value="" style="whiteSpace=wrap;html=1;aspect=fixed;strokeWidth=2;fillColor=#EA4335;opacity=50;" vertex="1" parent="SEfvn8J4_IVvISTcuMCb-28">
          <mxGeometry x="270" y="10" width="80" height="80" as="geometry" />
        </mxCell>
        <mxCell id="SEfvn8J4_IVvISTcuMCb-6" value="" style="whiteSpace=wrap;html=1;aspect=fixed;strokeWidth=2;fillColor=none;" vertex="1" parent="SEfvn8J4_IVvISTcuMCb-28">
          <mxGeometry x="30" y="90" width="80" height="80" as="geometry" />
        </mxCell>
        <mxCell id="SEfvn8J4_IVvISTcuMCb-7" value="" style="whiteSpace=wrap;html=1;aspect=fixed;strokeWidth=2;fillColor=#EA4335;opacity=50;" vertex="1" parent="SEfvn8J4_IVvISTcuMCb-28">
          <mxGeometry x="110" y="90" width="80" height="80" as="geometry" />
        </mxCell>
        <mxCell id="SEfvn8J4_IVvISTcuMCb-8" value="" style="whiteSpace=wrap;html=1;aspect=fixed;strokeWidth=2;fillColor=#EA4335;opacity=50;" vertex="1" parent="SEfvn8J4_IVvISTcuMCb-28">
          <mxGeometry x="190" y="90" width="80" height="80" as="geometry" />
        </mxCell>
        <mxCell id="SEfvn8J4_IVvISTcuMCb-9" value="" style="whiteSpace=wrap;html=1;aspect=fixed;strokeWidth=2;fillColor=#EA4335;opacity=50;" vertex="1" parent="SEfvn8J4_IVvISTcuMCb-28">
          <mxGeometry x="270" y="90" width="80" height="80" as="geometry" />
        </mxCell>
        <mxCell id="SEfvn8J4_IVvISTcuMCb-10" value="" style="whiteSpace=wrap;html=1;aspect=fixed;strokeWidth=2;fillColor=none;" vertex="1" parent="SEfvn8J4_IVvISTcuMCb-28">
          <mxGeometry x="30" y="170" width="80" height="80" as="geometry" />
        </mxCell>
        <mxCell id="SEfvn8J4_IVvISTcuMCb-11" value="" style="whiteSpace=wrap;html=1;aspect=fixed;strokeWidth=2;fillColor=#EA4335;opacity=50;" vertex="1" parent="SEfvn8J4_IVvISTcuMCb-28">
          <mxGeometry x="110" y="170" width="80" height="80" as="geometry" />
        </mxCell>
        <mxCell id="SEfvn8J4_IVvISTcuMCb-12" value="" style="whiteSpace=wrap;html=1;aspect=fixed;strokeWidth=2;fillColor=#EA4335;opacity=50;" vertex="1" parent="SEfvn8J4_IVvISTcuMCb-28">
          <mxGeometry x="190" y="170" width="80" height="80" as="geometry" />
        </mxCell>
        <mxCell id="SEfvn8J4_IVvISTcuMCb-13" value="" style="whiteSpace=wrap;html=1;aspect=fixed;strokeWidth=2;fillColor=#EA4335;opacity=50;" vertex="1" parent="SEfvn8J4_IVvISTcuMCb-28">
          <mxGeometry x="270" y="170" width="80" height="80" as="geometry" />
        </mxCell>
        <mxCell id="SEfvn8J4_IVvISTcuMCb-14" value="" style="whiteSpace=wrap;html=1;aspect=fixed;strokeWidth=2;fillColor=none;" vertex="1" parent="SEfvn8J4_IVvISTcuMCb-28">
          <mxGeometry x="30" y="250" width="80" height="80" as="geometry" />
        </mxCell>
        <mxCell id="SEfvn8J4_IVvISTcuMCb-15" value="" style="whiteSpace=wrap;html=1;aspect=fixed;strokeWidth=2;fillColor=none;" vertex="1" parent="SEfvn8J4_IVvISTcuMCb-28">
          <mxGeometry x="110" y="250" width="80" height="80" as="geometry" />
        </mxCell>
        <mxCell id="SEfvn8J4_IVvISTcuMCb-16" value="" style="whiteSpace=wrap;html=1;aspect=fixed;strokeWidth=2;fillColor=#EA4335;opacity=50;" vertex="1" parent="SEfvn8J4_IVvISTcuMCb-28">
          <mxGeometry x="190" y="250" width="80" height="80" as="geometry" />
        </mxCell>
        <mxCell id="SEfvn8J4_IVvISTcuMCb-17" value="" style="whiteSpace=wrap;html=1;aspect=fixed;strokeWidth=2;fillColor=#EA4335;opacity=50;" vertex="1" parent="SEfvn8J4_IVvISTcuMCb-28">
          <mxGeometry x="270" y="250" width="80" height="80" as="geometry" />
        </mxCell>
        <mxCell id="SEfvn8J4_IVvISTcuMCb-18" value="&lt;font face=&quot;Computer Modern&quot; style=&quot;font-size: 20px;&quot;&gt;0&lt;br style=&quot;font-size: 20px;&quot;&gt;&lt;/font&gt;" style="text;html=1;strokeColor=none;fillColor=none;align=center;verticalAlign=middle;whiteSpace=wrap;rounded=0;fontSize=20;" vertex="1" parent="SEfvn8J4_IVvISTcuMCb-28">
          <mxGeometry x="20" y="330" width="20" height="20" as="geometry" />
        </mxCell>
        <mxCell id="SEfvn8J4_IVvISTcuMCb-19" value="&lt;font face=&quot;Computer Modern&quot; style=&quot;font-size: 20px&quot;&gt;4&lt;br style=&quot;font-size: 20px&quot;&gt;&lt;/font&gt;" style="text;html=1;strokeColor=none;fillColor=none;align=center;verticalAlign=middle;whiteSpace=wrap;rounded=0;fontSize=20;" vertex="1" parent="SEfvn8J4_IVvISTcuMCb-28">
          <mxGeometry x="100" y="330" width="20" height="20" as="geometry" />
        </mxCell>
        <mxCell id="SEfvn8J4_IVvISTcuMCb-20" value="&lt;font face=&quot;Computer Modern&quot; style=&quot;font-size: 20px&quot;&gt;8&lt;br style=&quot;font-size: 20px&quot;&gt;&lt;/font&gt;" style="text;html=1;strokeColor=none;fillColor=none;align=center;verticalAlign=middle;whiteSpace=wrap;rounded=0;fontSize=20;" vertex="1" parent="SEfvn8J4_IVvISTcuMCb-28">
          <mxGeometry x="180" y="330" width="20" height="20" as="geometry" />
        </mxCell>
        <mxCell id="SEfvn8J4_IVvISTcuMCb-21" value="&lt;font face=&quot;Computer Modern&quot; style=&quot;font-size: 20px&quot;&gt;12&lt;br style=&quot;font-size: 20px&quot;&gt;&lt;/font&gt;" style="text;html=1;strokeColor=none;fillColor=none;align=center;verticalAlign=middle;whiteSpace=wrap;rounded=0;fontSize=20;" vertex="1" parent="SEfvn8J4_IVvISTcuMCb-28">
          <mxGeometry x="260" y="330" width="20" height="20" as="geometry" />
        </mxCell>
        <mxCell id="SEfvn8J4_IVvISTcuMCb-22" value="&lt;font face=&quot;Computer Modern&quot; style=&quot;font-size: 20px&quot;&gt;16&lt;br style=&quot;font-size: 20px&quot;&gt;&lt;/font&gt;" style="text;html=1;strokeColor=none;fillColor=none;align=center;verticalAlign=middle;whiteSpace=wrap;rounded=0;fontSize=20;" vertex="1" parent="SEfvn8J4_IVvISTcuMCb-28">
          <mxGeometry x="340" y="330" width="20" height="20" as="geometry" />
        </mxCell>
        <mxCell id="SEfvn8J4_IVvISTcuMCb-23" value="&lt;font face=&quot;Computer Modern&quot; style=&quot;font-size: 20px&quot;&gt;4&lt;br style=&quot;font-size: 20px&quot;&gt;&lt;/font&gt;" style="text;html=1;strokeColor=none;fillColor=none;align=center;verticalAlign=middle;whiteSpace=wrap;rounded=0;fontSize=20;" vertex="1" parent="SEfvn8J4_IVvISTcuMCb-28">
          <mxGeometry y="240" width="30" height="20" as="geometry" />
        </mxCell>
        <mxCell id="SEfvn8J4_IVvISTcuMCb-24" value="&lt;font face=&quot;Computer Modern&quot; style=&quot;font-size: 20px&quot;&gt;8&lt;br style=&quot;font-size: 20px&quot;&gt;&lt;/font&gt;" style="text;html=1;strokeColor=none;fillColor=none;align=center;verticalAlign=middle;whiteSpace=wrap;rounded=0;fontSize=20;" vertex="1" parent="SEfvn8J4_IVvISTcuMCb-28">
          <mxGeometry y="160" width="30" height="20" as="geometry" />
        </mxCell>
        <mxCell id="SEfvn8J4_IVvISTcuMCb-25" value="&lt;font face=&quot;Computer Modern&quot; style=&quot;font-size: 20px&quot;&gt;12&lt;br style=&quot;font-size: 20px&quot;&gt;&lt;/font&gt;" style="text;html=1;strokeColor=none;fillColor=none;align=center;verticalAlign=middle;whiteSpace=wrap;rounded=0;fontSize=20;" vertex="1" parent="SEfvn8J4_IVvISTcuMCb-28">
          <mxGeometry y="80" width="30" height="20" as="geometry" />
        </mxCell>
        <mxCell id="SEfvn8J4_IVvISTcuMCb-26" value="&lt;font face=&quot;Computer Modern&quot; style=&quot;font-size: 20px&quot;&gt;16&lt;br style=&quot;font-size: 20px&quot;&gt;&lt;/font&gt;" style="text;html=1;strokeColor=none;fillColor=none;align=center;verticalAlign=middle;whiteSpace=wrap;rounded=0;fontSize=20;" vertex="1" parent="SEfvn8J4_IVvISTcuMCb-28">
          <mxGeometry width="30" height="20" as="geometry" />
        </mxCell>
        <mxCell id="SEfvn8J4_IVvISTcuMCb-27" value="&lt;font face=&quot;Computer Modern&quot; style=&quot;font-size: 20px;&quot;&gt;0&lt;br style=&quot;font-size: 20px;&quot;&gt;&lt;/font&gt;" style="text;html=1;strokeColor=none;fillColor=none;align=center;verticalAlign=middle;whiteSpace=wrap;rounded=0;fontSize=20;" vertex="1" parent="SEfvn8J4_IVvISTcuMCb-28">
          <mxGeometry y="320" width="30" height="20" as="geometry" />
        </mxCell>
        <mxCell id="SEfvn8J4_IVvISTcuMCb-3" value="" style="whiteSpace=wrap;html=1;aspect=fixed;strokeWidth=2;opacity=50;fillColor=#EA4335;strokeColor=#000000;" vertex="1" parent="SEfvn8J4_IVvISTcuMCb-28">
          <mxGeometry x="110" y="10" width="80" height="80" as="geometry" />
        </mxCell>
      </root>
    </mxGraphModel>
  </diagram>
  <diagram name="OGMhighres" id="87Ur3qlS_X6GmGK8n1CD">
    <mxGraphModel dx="772" dy="451" grid="1" gridSize="10" guides="1" tooltips="1" connect="1" arrows="1" fold="1" page="1" pageScale="1" pageWidth="2400" pageHeight="2400" math="0" shadow="0" extFonts="Computer Modern^https://fonts.googleapis.com/css?family=Computer+Modern">
      <root>
        <mxCell id="pFoKC1mQ5wtn172idePt-0" />
        <mxCell id="pFoKC1mQ5wtn172idePt-1" parent="pFoKC1mQ5wtn172idePt-0" />
        <mxCell id="pFoKC1mQ5wtn172idePt-3" value="" style="group" vertex="1" connectable="0" parent="pFoKC1mQ5wtn172idePt-1">
          <mxGeometry x="778.5925253169416" y="680.003824242286" width="202.8057860645033" height="238.40681085232495" as="geometry" />
        </mxCell>
        <mxCell id="pFoKC1mQ5wtn172idePt-4" value="" style="ellipse;whiteSpace=wrap;html=1;strokeColor=none;strokeWidth=2;fillColor=#4285F4;fontSize=20;" vertex="1" parent="pFoKC1mQ5wtn172idePt-3">
          <mxGeometry x="4.497474683058272" y="4.166175757713972" width="120" height="80" as="geometry" />
        </mxCell>
        <mxCell id="pFoKC1mQ5wtn172idePt-5" value="" style="ellipse;whiteSpace=wrap;html=1;strokeColor=none;strokeWidth=2;fillColor=#4285F4;fontSize=20;rotation=30;" vertex="1" parent="pFoKC1mQ5wtn172idePt-3">
          <mxGeometry x="24.49747468305827" y="34.16617575771397" width="120" height="80" as="geometry" />
        </mxCell>
        <mxCell id="pFoKC1mQ5wtn172idePt-6" value="" style="ellipse;whiteSpace=wrap;html=1;strokeColor=none;strokeWidth=2;fillColor=#4285F4;fontSize=20;rotation=-15;" vertex="1" parent="pFoKC1mQ5wtn172idePt-3">
          <mxGeometry x="74.49747468305827" y="14.166175757713972" width="120" height="80" as="geometry" />
        </mxCell>
        <mxCell id="pFoKC1mQ5wtn172idePt-7" value="" style="ellipse;whiteSpace=wrap;html=1;strokeColor=none;strokeWidth=2;fillColor=#4285F4;fontSize=20;rotation=-45;" vertex="1" parent="pFoKC1mQ5wtn172idePt-3">
          <mxGeometry x="4.497474683058272" y="104.16617575771397" width="90" height="50" as="geometry" />
        </mxCell>
        <mxCell id="pFoKC1mQ5wtn172idePt-8" value="" style="ellipse;whiteSpace=wrap;html=1;strokeColor=none;strokeWidth=2;fillColor=#4285F4;fontSize=20;rotation=30;" vertex="1" parent="pFoKC1mQ5wtn172idePt-3">
          <mxGeometry x="8.567474683058208" y="148.96617575771393" width="171.16" height="50" as="geometry" />
        </mxCell>
        <mxCell id="pFoKC1mQ5wtn172idePt-24" value="&lt;font face=&quot;Computer Modern&quot; style=&quot;font-size: 20px;&quot;&gt;0&lt;br style=&quot;font-size: 20px;&quot;&gt;&lt;/font&gt;" style="text;html=1;strokeColor=none;fillColor=none;align=center;verticalAlign=middle;whiteSpace=wrap;rounded=0;fontSize=20;" vertex="1" parent="pFoKC1mQ5wtn172idePt-1">
          <mxGeometry x="670" y="960" width="20" height="20" as="geometry" />
        </mxCell>
        <mxCell id="pFoKC1mQ5wtn172idePt-25" value="&lt;font face=&quot;Computer Modern&quot; style=&quot;font-size: 20px&quot;&gt;4&lt;br style=&quot;font-size: 20px&quot;&gt;&lt;/font&gt;" style="text;html=1;strokeColor=none;fillColor=none;align=center;verticalAlign=middle;whiteSpace=wrap;rounded=0;fontSize=20;" vertex="1" parent="pFoKC1mQ5wtn172idePt-1">
          <mxGeometry x="750" y="960" width="20" height="20" as="geometry" />
        </mxCell>
        <mxCell id="pFoKC1mQ5wtn172idePt-26" value="&lt;font face=&quot;Computer Modern&quot; style=&quot;font-size: 20px&quot;&gt;8&lt;br style=&quot;font-size: 20px&quot;&gt;&lt;/font&gt;" style="text;html=1;strokeColor=none;fillColor=none;align=center;verticalAlign=middle;whiteSpace=wrap;rounded=0;fontSize=20;" vertex="1" parent="pFoKC1mQ5wtn172idePt-1">
          <mxGeometry x="830" y="960" width="20" height="20" as="geometry" />
        </mxCell>
        <mxCell id="pFoKC1mQ5wtn172idePt-27" value="&lt;font face=&quot;Computer Modern&quot; style=&quot;font-size: 20px&quot;&gt;12&lt;br style=&quot;font-size: 20px&quot;&gt;&lt;/font&gt;" style="text;html=1;strokeColor=none;fillColor=none;align=center;verticalAlign=middle;whiteSpace=wrap;rounded=0;fontSize=20;" vertex="1" parent="pFoKC1mQ5wtn172idePt-1">
          <mxGeometry x="910" y="960" width="20" height="20" as="geometry" />
        </mxCell>
        <mxCell id="pFoKC1mQ5wtn172idePt-28" value="&lt;font face=&quot;Computer Modern&quot; style=&quot;font-size: 20px&quot;&gt;16&lt;br style=&quot;font-size: 20px&quot;&gt;&lt;/font&gt;" style="text;html=1;strokeColor=none;fillColor=none;align=center;verticalAlign=middle;whiteSpace=wrap;rounded=0;fontSize=20;" vertex="1" parent="pFoKC1mQ5wtn172idePt-1">
          <mxGeometry x="990" y="960" width="20" height="20" as="geometry" />
        </mxCell>
        <mxCell id="pFoKC1mQ5wtn172idePt-29" value="&lt;font face=&quot;Computer Modern&quot; style=&quot;font-size: 20px&quot;&gt;4&lt;br style=&quot;font-size: 20px&quot;&gt;&lt;/font&gt;" style="text;html=1;strokeColor=none;fillColor=none;align=center;verticalAlign=middle;whiteSpace=wrap;rounded=0;fontSize=20;" vertex="1" parent="pFoKC1mQ5wtn172idePt-1">
          <mxGeometry x="650" y="870" width="30" height="20" as="geometry" />
        </mxCell>
        <mxCell id="pFoKC1mQ5wtn172idePt-30" value="&lt;font face=&quot;Computer Modern&quot; style=&quot;font-size: 20px&quot;&gt;8&lt;br style=&quot;font-size: 20px&quot;&gt;&lt;/font&gt;" style="text;html=1;strokeColor=none;fillColor=none;align=center;verticalAlign=middle;whiteSpace=wrap;rounded=0;fontSize=20;" vertex="1" parent="pFoKC1mQ5wtn172idePt-1">
          <mxGeometry x="650" y="790" width="30" height="20" as="geometry" />
        </mxCell>
        <mxCell id="pFoKC1mQ5wtn172idePt-31" value="&lt;font face=&quot;Computer Modern&quot; style=&quot;font-size: 20px&quot;&gt;12&lt;br style=&quot;font-size: 20px&quot;&gt;&lt;/font&gt;" style="text;html=1;strokeColor=none;fillColor=none;align=center;verticalAlign=middle;whiteSpace=wrap;rounded=0;fontSize=20;" vertex="1" parent="pFoKC1mQ5wtn172idePt-1">
          <mxGeometry x="650" y="710" width="30" height="20" as="geometry" />
        </mxCell>
        <mxCell id="pFoKC1mQ5wtn172idePt-32" value="&lt;font face=&quot;Computer Modern&quot; style=&quot;font-size: 20px&quot;&gt;16&lt;br style=&quot;font-size: 20px&quot;&gt;&lt;/font&gt;" style="text;html=1;strokeColor=none;fillColor=none;align=center;verticalAlign=middle;whiteSpace=wrap;rounded=0;fontSize=20;" vertex="1" parent="pFoKC1mQ5wtn172idePt-1">
          <mxGeometry x="650" y="630" width="30" height="20" as="geometry" />
        </mxCell>
        <mxCell id="pFoKC1mQ5wtn172idePt-33" value="&lt;font face=&quot;Computer Modern&quot; style=&quot;font-size: 20px;&quot;&gt;0&lt;br style=&quot;font-size: 20px;&quot;&gt;&lt;/font&gt;" style="text;html=1;strokeColor=none;fillColor=none;align=center;verticalAlign=middle;whiteSpace=wrap;rounded=0;fontSize=20;" vertex="1" parent="pFoKC1mQ5wtn172idePt-1">
          <mxGeometry x="650" y="950" width="30" height="20" as="geometry" />
        </mxCell>
        <mxCell id="pFoKC1mQ5wtn172idePt-35" value="" style="whiteSpace=wrap;html=1;aspect=fixed;strokeColor=#000000;strokeWidth=2;fillColor=none;fontSize=20;" vertex="1" parent="pFoKC1mQ5wtn172idePt-1">
          <mxGeometry x="680" y="640" width="20" height="20" as="geometry" />
        </mxCell>
        <mxCell id="pFoKC1mQ5wtn172idePt-36" value="" style="whiteSpace=wrap;html=1;aspect=fixed;strokeColor=#000000;strokeWidth=2;fillColor=none;fontSize=20;" vertex="1" parent="pFoKC1mQ5wtn172idePt-1">
          <mxGeometry x="700" y="640" width="20" height="20" as="geometry" />
        </mxCell>
        <mxCell id="pFoKC1mQ5wtn172idePt-37" value="" style="whiteSpace=wrap;html=1;aspect=fixed;strokeColor=#000000;strokeWidth=2;fillColor=none;fontSize=20;" vertex="1" parent="pFoKC1mQ5wtn172idePt-1">
          <mxGeometry x="720" y="640" width="20" height="20" as="geometry" />
        </mxCell>
        <mxCell id="pFoKC1mQ5wtn172idePt-38" value="" style="whiteSpace=wrap;html=1;aspect=fixed;strokeColor=#000000;strokeWidth=2;fillColor=none;fontSize=20;" vertex="1" parent="pFoKC1mQ5wtn172idePt-1">
          <mxGeometry x="740" y="640" width="20" height="20" as="geometry" />
        </mxCell>
        <mxCell id="Fj-yUUgYOXFMrO8vr5FW-0" value="" style="whiteSpace=wrap;html=1;aspect=fixed;strokeColor=#000000;strokeWidth=2;fillColor=none;fontSize=20;" vertex="1" parent="pFoKC1mQ5wtn172idePt-1">
          <mxGeometry x="760" y="640" width="20" height="20" as="geometry" />
        </mxCell>
        <mxCell id="Fj-yUUgYOXFMrO8vr5FW-1" value="" style="whiteSpace=wrap;html=1;aspect=fixed;strokeColor=#000000;strokeWidth=2;fillColor=none;fontSize=20;" vertex="1" parent="pFoKC1mQ5wtn172idePt-1">
          <mxGeometry x="780" y="640" width="20" height="20" as="geometry" />
        </mxCell>
        <mxCell id="Fj-yUUgYOXFMrO8vr5FW-2" value="" style="whiteSpace=wrap;html=1;aspect=fixed;strokeColor=#000000;strokeWidth=2;fillColor=none;fontSize=20;" vertex="1" parent="pFoKC1mQ5wtn172idePt-1">
          <mxGeometry x="800" y="640" width="20" height="20" as="geometry" />
        </mxCell>
        <mxCell id="Fj-yUUgYOXFMrO8vr5FW-3" value="" style="whiteSpace=wrap;html=1;aspect=fixed;strokeColor=#000000;strokeWidth=2;fillColor=none;fontSize=20;" vertex="1" parent="pFoKC1mQ5wtn172idePt-1">
          <mxGeometry x="820" y="640" width="20" height="20" as="geometry" />
        </mxCell>
        <mxCell id="Fj-yUUgYOXFMrO8vr5FW-4" value="" style="whiteSpace=wrap;html=1;aspect=fixed;strokeColor=#000000;strokeWidth=2;fillColor=none;fontSize=20;" vertex="1" parent="pFoKC1mQ5wtn172idePt-1">
          <mxGeometry x="840" y="640" width="20" height="20" as="geometry" />
        </mxCell>
        <mxCell id="Fj-yUUgYOXFMrO8vr5FW-5" value="" style="whiteSpace=wrap;html=1;aspect=fixed;strokeColor=#000000;strokeWidth=2;fillColor=none;fontSize=20;" vertex="1" parent="pFoKC1mQ5wtn172idePt-1">
          <mxGeometry x="860" y="640" width="20" height="20" as="geometry" />
        </mxCell>
        <mxCell id="Fj-yUUgYOXFMrO8vr5FW-6" value="" style="whiteSpace=wrap;html=1;aspect=fixed;strokeColor=#000000;strokeWidth=2;fillColor=none;fontSize=20;" vertex="1" parent="pFoKC1mQ5wtn172idePt-1">
          <mxGeometry x="880" y="640" width="20" height="20" as="geometry" />
        </mxCell>
        <mxCell id="Fj-yUUgYOXFMrO8vr5FW-7" value="" style="whiteSpace=wrap;html=1;aspect=fixed;strokeColor=#000000;strokeWidth=2;fillColor=none;fontSize=20;" vertex="1" parent="pFoKC1mQ5wtn172idePt-1">
          <mxGeometry x="900" y="640" width="20" height="20" as="geometry" />
        </mxCell>
        <mxCell id="Fj-yUUgYOXFMrO8vr5FW-8" value="" style="whiteSpace=wrap;html=1;aspect=fixed;strokeColor=#000000;strokeWidth=2;fillColor=none;fontSize=20;" vertex="1" parent="pFoKC1mQ5wtn172idePt-1">
          <mxGeometry x="920" y="640" width="20" height="20" as="geometry" />
        </mxCell>
        <mxCell id="Fj-yUUgYOXFMrO8vr5FW-9" value="" style="whiteSpace=wrap;html=1;aspect=fixed;strokeColor=#000000;strokeWidth=2;fillColor=none;fontSize=20;" vertex="1" parent="pFoKC1mQ5wtn172idePt-1">
          <mxGeometry x="940" y="640" width="20" height="20" as="geometry" />
        </mxCell>
        <mxCell id="Fj-yUUgYOXFMrO8vr5FW-10" value="" style="whiteSpace=wrap;html=1;aspect=fixed;strokeColor=#000000;strokeWidth=2;fillColor=none;fontSize=20;" vertex="1" parent="pFoKC1mQ5wtn172idePt-1">
          <mxGeometry x="960" y="640" width="20" height="20" as="geometry" />
        </mxCell>
        <mxCell id="Fj-yUUgYOXFMrO8vr5FW-11" value="" style="whiteSpace=wrap;html=1;aspect=fixed;strokeColor=#000000;strokeWidth=2;fillColor=none;fontSize=20;" vertex="1" parent="pFoKC1mQ5wtn172idePt-1">
          <mxGeometry x="980" y="640" width="20" height="20" as="geometry" />
        </mxCell>
        <mxCell id="Fj-yUUgYOXFMrO8vr5FW-374" value="" style="whiteSpace=wrap;html=1;aspect=fixed;strokeColor=#000000;strokeWidth=2;fillColor=none;fontSize=20;" vertex="1" parent="pFoKC1mQ5wtn172idePt-1">
          <mxGeometry x="680" y="660" width="20" height="20" as="geometry" />
        </mxCell>
        <mxCell id="Fj-yUUgYOXFMrO8vr5FW-375" value="" style="whiteSpace=wrap;html=1;aspect=fixed;strokeColor=#000000;strokeWidth=2;fillColor=none;fontSize=20;" vertex="1" parent="pFoKC1mQ5wtn172idePt-1">
          <mxGeometry x="700" y="660" width="20" height="20" as="geometry" />
        </mxCell>
        <mxCell id="Fj-yUUgYOXFMrO8vr5FW-376" value="" style="whiteSpace=wrap;html=1;aspect=fixed;strokeColor=#000000;strokeWidth=2;fillColor=none;fontSize=20;" vertex="1" parent="pFoKC1mQ5wtn172idePt-1">
          <mxGeometry x="720" y="660" width="20" height="20" as="geometry" />
        </mxCell>
        <mxCell id="Fj-yUUgYOXFMrO8vr5FW-377" value="" style="whiteSpace=wrap;html=1;aspect=fixed;strokeColor=#000000;strokeWidth=2;fillColor=none;fontSize=20;" vertex="1" parent="pFoKC1mQ5wtn172idePt-1">
          <mxGeometry x="740" y="660" width="20" height="20" as="geometry" />
        </mxCell>
        <mxCell id="Fj-yUUgYOXFMrO8vr5FW-378" value="" style="whiteSpace=wrap;html=1;aspect=fixed;strokeColor=#000000;strokeWidth=2;fillColor=none;fontSize=20;" vertex="1" parent="pFoKC1mQ5wtn172idePt-1">
          <mxGeometry x="760" y="660" width="20" height="20" as="geometry" />
        </mxCell>
        <mxCell id="Fj-yUUgYOXFMrO8vr5FW-379" value="" style="whiteSpace=wrap;html=1;aspect=fixed;strokeColor=#000000;strokeWidth=2;fillColor=none;fontSize=20;" vertex="1" parent="pFoKC1mQ5wtn172idePt-1">
          <mxGeometry x="780" y="660" width="20" height="20" as="geometry" />
        </mxCell>
        <mxCell id="Fj-yUUgYOXFMrO8vr5FW-380" value="" style="whiteSpace=wrap;html=1;aspect=fixed;strokeColor=#000000;strokeWidth=2;fillColor=none;fontSize=20;" vertex="1" parent="pFoKC1mQ5wtn172idePt-1">
          <mxGeometry x="800" y="660" width="20" height="20" as="geometry" />
        </mxCell>
        <mxCell id="Fj-yUUgYOXFMrO8vr5FW-381" value="" style="whiteSpace=wrap;html=1;aspect=fixed;strokeColor=#000000;strokeWidth=2;fillColor=none;fontSize=20;" vertex="1" parent="pFoKC1mQ5wtn172idePt-1">
          <mxGeometry x="820" y="660" width="20" height="20" as="geometry" />
        </mxCell>
        <mxCell id="Fj-yUUgYOXFMrO8vr5FW-382" value="" style="whiteSpace=wrap;html=1;aspect=fixed;strokeColor=#000000;strokeWidth=2;fillColor=none;fontSize=20;" vertex="1" parent="pFoKC1mQ5wtn172idePt-1">
          <mxGeometry x="840" y="660" width="20" height="20" as="geometry" />
        </mxCell>
        <mxCell id="Fj-yUUgYOXFMrO8vr5FW-383" value="" style="whiteSpace=wrap;html=1;aspect=fixed;strokeColor=#000000;strokeWidth=2;fillColor=none;fontSize=20;" vertex="1" parent="pFoKC1mQ5wtn172idePt-1">
          <mxGeometry x="860" y="660" width="20" height="20" as="geometry" />
        </mxCell>
        <mxCell id="Fj-yUUgYOXFMrO8vr5FW-384" value="" style="whiteSpace=wrap;html=1;aspect=fixed;strokeColor=#000000;strokeWidth=2;fillColor=none;fontSize=20;" vertex="1" parent="pFoKC1mQ5wtn172idePt-1">
          <mxGeometry x="880" y="660" width="20" height="20" as="geometry" />
        </mxCell>
        <mxCell id="Fj-yUUgYOXFMrO8vr5FW-385" value="" style="whiteSpace=wrap;html=1;aspect=fixed;strokeColor=#000000;strokeWidth=2;fillColor=none;fontSize=20;" vertex="1" parent="pFoKC1mQ5wtn172idePt-1">
          <mxGeometry x="900" y="660" width="20" height="20" as="geometry" />
        </mxCell>
        <mxCell id="Fj-yUUgYOXFMrO8vr5FW-386" value="" style="whiteSpace=wrap;html=1;aspect=fixed;strokeColor=#000000;strokeWidth=2;fillColor=none;fontSize=20;" vertex="1" parent="pFoKC1mQ5wtn172idePt-1">
          <mxGeometry x="920" y="660" width="20" height="20" as="geometry" />
        </mxCell>
        <mxCell id="Fj-yUUgYOXFMrO8vr5FW-387" value="" style="whiteSpace=wrap;html=1;aspect=fixed;strokeColor=#000000;strokeWidth=2;fillColor=none;fontSize=20;" vertex="1" parent="pFoKC1mQ5wtn172idePt-1">
          <mxGeometry x="940" y="660" width="20" height="20" as="geometry" />
        </mxCell>
        <mxCell id="Fj-yUUgYOXFMrO8vr5FW-388" value="" style="whiteSpace=wrap;html=1;aspect=fixed;strokeColor=#000000;strokeWidth=2;fillColor=none;fontSize=20;" vertex="1" parent="pFoKC1mQ5wtn172idePt-1">
          <mxGeometry x="960" y="660" width="20" height="20" as="geometry" />
        </mxCell>
        <mxCell id="Fj-yUUgYOXFMrO8vr5FW-389" value="" style="whiteSpace=wrap;html=1;aspect=fixed;strokeColor=#000000;strokeWidth=2;fillColor=none;fontSize=20;" vertex="1" parent="pFoKC1mQ5wtn172idePt-1">
          <mxGeometry x="980" y="660" width="20" height="20" as="geometry" />
        </mxCell>
        <mxCell id="Fj-yUUgYOXFMrO8vr5FW-390" value="" style="whiteSpace=wrap;html=1;aspect=fixed;strokeColor=#000000;strokeWidth=2;fillColor=none;fontSize=20;" vertex="1" parent="pFoKC1mQ5wtn172idePt-1">
          <mxGeometry x="680" y="680" width="20" height="20" as="geometry" />
        </mxCell>
        <mxCell id="Fj-yUUgYOXFMrO8vr5FW-391" value="" style="whiteSpace=wrap;html=1;aspect=fixed;strokeColor=#000000;strokeWidth=2;fillColor=none;fontSize=20;" vertex="1" parent="pFoKC1mQ5wtn172idePt-1">
          <mxGeometry x="700" y="680" width="20" height="20" as="geometry" />
        </mxCell>
        <mxCell id="Fj-yUUgYOXFMrO8vr5FW-392" value="" style="whiteSpace=wrap;html=1;aspect=fixed;strokeColor=#000000;strokeWidth=2;fillColor=none;fontSize=20;" vertex="1" parent="pFoKC1mQ5wtn172idePt-1">
          <mxGeometry x="720" y="680" width="20" height="20" as="geometry" />
        </mxCell>
        <mxCell id="Fj-yUUgYOXFMrO8vr5FW-393" value="" style="whiteSpace=wrap;html=1;aspect=fixed;strokeColor=#000000;strokeWidth=2;fillColor=none;fontSize=20;" vertex="1" parent="pFoKC1mQ5wtn172idePt-1">
          <mxGeometry x="740" y="680" width="20" height="20" as="geometry" />
        </mxCell>
        <mxCell id="Fj-yUUgYOXFMrO8vr5FW-394" value="" style="whiteSpace=wrap;html=1;aspect=fixed;strokeColor=#000000;strokeWidth=2;fillColor=none;fontSize=20;" vertex="1" parent="pFoKC1mQ5wtn172idePt-1">
          <mxGeometry x="760" y="680" width="20" height="20" as="geometry" />
        </mxCell>
        <mxCell id="Fj-yUUgYOXFMrO8vr5FW-395" value="" style="whiteSpace=wrap;html=1;aspect=fixed;strokeColor=#000000;strokeWidth=2;fillColor=none;fontSize=20;" vertex="1" parent="pFoKC1mQ5wtn172idePt-1">
          <mxGeometry x="780" y="680" width="20" height="20" as="geometry" />
        </mxCell>
        <mxCell id="Fj-yUUgYOXFMrO8vr5FW-396" value="" style="whiteSpace=wrap;html=1;aspect=fixed;strokeColor=#000000;strokeWidth=2;fillColor=none;fontSize=20;" vertex="1" parent="pFoKC1mQ5wtn172idePt-1">
          <mxGeometry x="800" y="680" width="20" height="20" as="geometry" />
        </mxCell>
        <mxCell id="Fj-yUUgYOXFMrO8vr5FW-397" value="" style="whiteSpace=wrap;html=1;aspect=fixed;strokeColor=#000000;strokeWidth=2;fillColor=none;fontSize=20;" vertex="1" parent="pFoKC1mQ5wtn172idePt-1">
          <mxGeometry x="820" y="680" width="20" height="20" as="geometry" />
        </mxCell>
        <mxCell id="Fj-yUUgYOXFMrO8vr5FW-398" value="" style="whiteSpace=wrap;html=1;aspect=fixed;strokeColor=#000000;strokeWidth=2;fillColor=none;fontSize=20;" vertex="1" parent="pFoKC1mQ5wtn172idePt-1">
          <mxGeometry x="840" y="680" width="20" height="20" as="geometry" />
        </mxCell>
        <mxCell id="Fj-yUUgYOXFMrO8vr5FW-399" value="" style="whiteSpace=wrap;html=1;aspect=fixed;strokeColor=#000000;strokeWidth=2;fillColor=none;fontSize=20;" vertex="1" parent="pFoKC1mQ5wtn172idePt-1">
          <mxGeometry x="860" y="680" width="20" height="20" as="geometry" />
        </mxCell>
        <mxCell id="Fj-yUUgYOXFMrO8vr5FW-400" value="" style="whiteSpace=wrap;html=1;aspect=fixed;strokeColor=#000000;strokeWidth=2;fillColor=none;fontSize=20;" vertex="1" parent="pFoKC1mQ5wtn172idePt-1">
          <mxGeometry x="880" y="680" width="20" height="20" as="geometry" />
        </mxCell>
        <mxCell id="Fj-yUUgYOXFMrO8vr5FW-401" value="" style="whiteSpace=wrap;html=1;aspect=fixed;strokeColor=#000000;strokeWidth=2;fillColor=none;fontSize=20;" vertex="1" parent="pFoKC1mQ5wtn172idePt-1">
          <mxGeometry x="900" y="680" width="20" height="20" as="geometry" />
        </mxCell>
        <mxCell id="Fj-yUUgYOXFMrO8vr5FW-402" value="" style="whiteSpace=wrap;html=1;aspect=fixed;strokeColor=#000000;strokeWidth=2;fillColor=none;fontSize=20;" vertex="1" parent="pFoKC1mQ5wtn172idePt-1">
          <mxGeometry x="920" y="680" width="20" height="20" as="geometry" />
        </mxCell>
        <mxCell id="Fj-yUUgYOXFMrO8vr5FW-403" value="" style="whiteSpace=wrap;html=1;aspect=fixed;strokeColor=#000000;strokeWidth=2;fillColor=none;fontSize=20;" vertex="1" parent="pFoKC1mQ5wtn172idePt-1">
          <mxGeometry x="940" y="680" width="20" height="20" as="geometry" />
        </mxCell>
        <mxCell id="Fj-yUUgYOXFMrO8vr5FW-404" value="" style="whiteSpace=wrap;html=1;aspect=fixed;strokeColor=#000000;strokeWidth=2;fillColor=none;fontSize=20;" vertex="1" parent="pFoKC1mQ5wtn172idePt-1">
          <mxGeometry x="960" y="680" width="20" height="20" as="geometry" />
        </mxCell>
        <mxCell id="Fj-yUUgYOXFMrO8vr5FW-405" value="" style="whiteSpace=wrap;html=1;aspect=fixed;strokeColor=#000000;strokeWidth=2;fillColor=none;fontSize=20;" vertex="1" parent="pFoKC1mQ5wtn172idePt-1">
          <mxGeometry x="980" y="680" width="20" height="20" as="geometry" />
        </mxCell>
        <mxCell id="Fj-yUUgYOXFMrO8vr5FW-406" value="" style="whiteSpace=wrap;html=1;aspect=fixed;strokeColor=#000000;strokeWidth=2;fillColor=none;fontSize=20;" vertex="1" parent="pFoKC1mQ5wtn172idePt-1">
          <mxGeometry x="680" y="700" width="20" height="20" as="geometry" />
        </mxCell>
        <mxCell id="Fj-yUUgYOXFMrO8vr5FW-407" value="" style="whiteSpace=wrap;html=1;aspect=fixed;strokeColor=#000000;strokeWidth=2;fillColor=none;fontSize=20;" vertex="1" parent="pFoKC1mQ5wtn172idePt-1">
          <mxGeometry x="700" y="700" width="20" height="20" as="geometry" />
        </mxCell>
        <mxCell id="Fj-yUUgYOXFMrO8vr5FW-408" value="" style="whiteSpace=wrap;html=1;aspect=fixed;strokeColor=#000000;strokeWidth=2;fillColor=none;fontSize=20;" vertex="1" parent="pFoKC1mQ5wtn172idePt-1">
          <mxGeometry x="720" y="700" width="20" height="20" as="geometry" />
        </mxCell>
        <mxCell id="Fj-yUUgYOXFMrO8vr5FW-409" value="" style="whiteSpace=wrap;html=1;aspect=fixed;strokeColor=#000000;strokeWidth=2;fillColor=none;fontSize=20;" vertex="1" parent="pFoKC1mQ5wtn172idePt-1">
          <mxGeometry x="740" y="700" width="20" height="20" as="geometry" />
        </mxCell>
        <mxCell id="Fj-yUUgYOXFMrO8vr5FW-410" value="" style="whiteSpace=wrap;html=1;aspect=fixed;strokeColor=#000000;strokeWidth=2;fillColor=none;fontSize=20;" vertex="1" parent="pFoKC1mQ5wtn172idePt-1">
          <mxGeometry x="760" y="700" width="20" height="20" as="geometry" />
        </mxCell>
        <mxCell id="Fj-yUUgYOXFMrO8vr5FW-411" value="" style="whiteSpace=wrap;html=1;aspect=fixed;strokeColor=#000000;strokeWidth=2;fillColor=none;fontSize=20;" vertex="1" parent="pFoKC1mQ5wtn172idePt-1">
          <mxGeometry x="780" y="700" width="20" height="20" as="geometry" />
        </mxCell>
        <mxCell id="Fj-yUUgYOXFMrO8vr5FW-412" value="" style="whiteSpace=wrap;html=1;aspect=fixed;strokeColor=#000000;strokeWidth=2;fillColor=none;fontSize=20;" vertex="1" parent="pFoKC1mQ5wtn172idePt-1">
          <mxGeometry x="800" y="700" width="20" height="20" as="geometry" />
        </mxCell>
        <mxCell id="Fj-yUUgYOXFMrO8vr5FW-413" value="" style="whiteSpace=wrap;html=1;aspect=fixed;strokeColor=#000000;strokeWidth=2;fillColor=none;fontSize=20;" vertex="1" parent="pFoKC1mQ5wtn172idePt-1">
          <mxGeometry x="820" y="700" width="20" height="20" as="geometry" />
        </mxCell>
        <mxCell id="Fj-yUUgYOXFMrO8vr5FW-414" value="" style="whiteSpace=wrap;html=1;aspect=fixed;strokeColor=#000000;strokeWidth=2;fillColor=none;fontSize=20;" vertex="1" parent="pFoKC1mQ5wtn172idePt-1">
          <mxGeometry x="840" y="700" width="20" height="20" as="geometry" />
        </mxCell>
        <mxCell id="Fj-yUUgYOXFMrO8vr5FW-415" value="" style="whiteSpace=wrap;html=1;aspect=fixed;strokeColor=#000000;strokeWidth=2;fillColor=none;fontSize=20;" vertex="1" parent="pFoKC1mQ5wtn172idePt-1">
          <mxGeometry x="860" y="700" width="20" height="20" as="geometry" />
        </mxCell>
        <mxCell id="Fj-yUUgYOXFMrO8vr5FW-416" value="" style="whiteSpace=wrap;html=1;aspect=fixed;strokeColor=#000000;strokeWidth=2;fillColor=none;fontSize=20;" vertex="1" parent="pFoKC1mQ5wtn172idePt-1">
          <mxGeometry x="880" y="700" width="20" height="20" as="geometry" />
        </mxCell>
        <mxCell id="Fj-yUUgYOXFMrO8vr5FW-417" value="" style="whiteSpace=wrap;html=1;aspect=fixed;strokeColor=#000000;strokeWidth=2;fillColor=none;fontSize=20;" vertex="1" parent="pFoKC1mQ5wtn172idePt-1">
          <mxGeometry x="900" y="700" width="20" height="20" as="geometry" />
        </mxCell>
        <mxCell id="Fj-yUUgYOXFMrO8vr5FW-418" value="" style="whiteSpace=wrap;html=1;aspect=fixed;strokeColor=#000000;strokeWidth=2;fillColor=none;fontSize=20;" vertex="1" parent="pFoKC1mQ5wtn172idePt-1">
          <mxGeometry x="920" y="700" width="20" height="20" as="geometry" />
        </mxCell>
        <mxCell id="Fj-yUUgYOXFMrO8vr5FW-419" value="" style="whiteSpace=wrap;html=1;aspect=fixed;strokeColor=#000000;strokeWidth=2;fillColor=none;fontSize=20;" vertex="1" parent="pFoKC1mQ5wtn172idePt-1">
          <mxGeometry x="940" y="700" width="20" height="20" as="geometry" />
        </mxCell>
        <mxCell id="Fj-yUUgYOXFMrO8vr5FW-420" value="" style="whiteSpace=wrap;html=1;aspect=fixed;strokeColor=#000000;strokeWidth=2;fillColor=none;fontSize=20;" vertex="1" parent="pFoKC1mQ5wtn172idePt-1">
          <mxGeometry x="960" y="700" width="20" height="20" as="geometry" />
        </mxCell>
        <mxCell id="Fj-yUUgYOXFMrO8vr5FW-421" value="" style="whiteSpace=wrap;html=1;aspect=fixed;strokeColor=#000000;strokeWidth=2;fillColor=none;fontSize=20;" vertex="1" parent="pFoKC1mQ5wtn172idePt-1">
          <mxGeometry x="980" y="700" width="20" height="20" as="geometry" />
        </mxCell>
        <mxCell id="Fj-yUUgYOXFMrO8vr5FW-422" value="" style="whiteSpace=wrap;html=1;aspect=fixed;strokeColor=#000000;strokeWidth=2;fillColor=none;fontSize=20;" vertex="1" parent="pFoKC1mQ5wtn172idePt-1">
          <mxGeometry x="680" y="720" width="20" height="20" as="geometry" />
        </mxCell>
        <mxCell id="Fj-yUUgYOXFMrO8vr5FW-423" value="" style="whiteSpace=wrap;html=1;aspect=fixed;strokeColor=#000000;strokeWidth=2;fillColor=none;fontSize=20;" vertex="1" parent="pFoKC1mQ5wtn172idePt-1">
          <mxGeometry x="700" y="720" width="20" height="20" as="geometry" />
        </mxCell>
        <mxCell id="Fj-yUUgYOXFMrO8vr5FW-424" value="" style="whiteSpace=wrap;html=1;aspect=fixed;strokeColor=#000000;strokeWidth=2;fillColor=none;fontSize=20;" vertex="1" parent="pFoKC1mQ5wtn172idePt-1">
          <mxGeometry x="720" y="720" width="20" height="20" as="geometry" />
        </mxCell>
        <mxCell id="Fj-yUUgYOXFMrO8vr5FW-425" value="" style="whiteSpace=wrap;html=1;aspect=fixed;strokeColor=#000000;strokeWidth=2;fillColor=none;fontSize=20;" vertex="1" parent="pFoKC1mQ5wtn172idePt-1">
          <mxGeometry x="740" y="720" width="20" height="20" as="geometry" />
        </mxCell>
        <mxCell id="Fj-yUUgYOXFMrO8vr5FW-426" value="" style="whiteSpace=wrap;html=1;aspect=fixed;strokeColor=#000000;strokeWidth=2;fillColor=none;fontSize=20;" vertex="1" parent="pFoKC1mQ5wtn172idePt-1">
          <mxGeometry x="760" y="720" width="20" height="20" as="geometry" />
        </mxCell>
        <mxCell id="Fj-yUUgYOXFMrO8vr5FW-427" value="" style="whiteSpace=wrap;html=1;aspect=fixed;strokeColor=#000000;strokeWidth=2;fillColor=none;fontSize=20;" vertex="1" parent="pFoKC1mQ5wtn172idePt-1">
          <mxGeometry x="780" y="720" width="20" height="20" as="geometry" />
        </mxCell>
        <mxCell id="Fj-yUUgYOXFMrO8vr5FW-428" value="" style="whiteSpace=wrap;html=1;aspect=fixed;strokeColor=#000000;strokeWidth=2;fillColor=none;fontSize=20;" vertex="1" parent="pFoKC1mQ5wtn172idePt-1">
          <mxGeometry x="800" y="720" width="20" height="20" as="geometry" />
        </mxCell>
        <mxCell id="Fj-yUUgYOXFMrO8vr5FW-429" value="" style="whiteSpace=wrap;html=1;aspect=fixed;strokeColor=#000000;strokeWidth=2;fillColor=none;fontSize=20;" vertex="1" parent="pFoKC1mQ5wtn172idePt-1">
          <mxGeometry x="820" y="720" width="20" height="20" as="geometry" />
        </mxCell>
        <mxCell id="Fj-yUUgYOXFMrO8vr5FW-430" value="" style="whiteSpace=wrap;html=1;aspect=fixed;strokeColor=#000000;strokeWidth=2;fillColor=none;fontSize=20;" vertex="1" parent="pFoKC1mQ5wtn172idePt-1">
          <mxGeometry x="840" y="720" width="20" height="20" as="geometry" />
        </mxCell>
        <mxCell id="Fj-yUUgYOXFMrO8vr5FW-431" value="" style="whiteSpace=wrap;html=1;aspect=fixed;strokeColor=#000000;strokeWidth=2;fillColor=none;fontSize=20;" vertex="1" parent="pFoKC1mQ5wtn172idePt-1">
          <mxGeometry x="860" y="720" width="20" height="20" as="geometry" />
        </mxCell>
        <mxCell id="Fj-yUUgYOXFMrO8vr5FW-432" value="" style="whiteSpace=wrap;html=1;aspect=fixed;strokeColor=#000000;strokeWidth=2;fillColor=none;fontSize=20;" vertex="1" parent="pFoKC1mQ5wtn172idePt-1">
          <mxGeometry x="880" y="720" width="20" height="20" as="geometry" />
        </mxCell>
        <mxCell id="Fj-yUUgYOXFMrO8vr5FW-433" value="" style="whiteSpace=wrap;html=1;aspect=fixed;strokeColor=#000000;strokeWidth=2;fillColor=none;fontSize=20;" vertex="1" parent="pFoKC1mQ5wtn172idePt-1">
          <mxGeometry x="900" y="720" width="20" height="20" as="geometry" />
        </mxCell>
        <mxCell id="Fj-yUUgYOXFMrO8vr5FW-434" value="" style="whiteSpace=wrap;html=1;aspect=fixed;strokeColor=#000000;strokeWidth=2;fillColor=none;fontSize=20;" vertex="1" parent="pFoKC1mQ5wtn172idePt-1">
          <mxGeometry x="920" y="720" width="20" height="20" as="geometry" />
        </mxCell>
        <mxCell id="Fj-yUUgYOXFMrO8vr5FW-435" value="" style="whiteSpace=wrap;html=1;aspect=fixed;strokeColor=#000000;strokeWidth=2;fillColor=none;fontSize=20;" vertex="1" parent="pFoKC1mQ5wtn172idePt-1">
          <mxGeometry x="940" y="720" width="20" height="20" as="geometry" />
        </mxCell>
        <mxCell id="Fj-yUUgYOXFMrO8vr5FW-436" value="" style="whiteSpace=wrap;html=1;aspect=fixed;strokeColor=#000000;strokeWidth=2;fillColor=none;fontSize=20;" vertex="1" parent="pFoKC1mQ5wtn172idePt-1">
          <mxGeometry x="960" y="720" width="20" height="20" as="geometry" />
        </mxCell>
        <mxCell id="Fj-yUUgYOXFMrO8vr5FW-437" value="" style="whiteSpace=wrap;html=1;aspect=fixed;strokeColor=#000000;strokeWidth=2;fillColor=none;fontSize=20;" vertex="1" parent="pFoKC1mQ5wtn172idePt-1">
          <mxGeometry x="980" y="720" width="20" height="20" as="geometry" />
        </mxCell>
        <mxCell id="Fj-yUUgYOXFMrO8vr5FW-438" value="" style="whiteSpace=wrap;html=1;aspect=fixed;strokeColor=#000000;strokeWidth=2;fillColor=none;fontSize=20;" vertex="1" parent="pFoKC1mQ5wtn172idePt-1">
          <mxGeometry x="680" y="740" width="20" height="20" as="geometry" />
        </mxCell>
        <mxCell id="Fj-yUUgYOXFMrO8vr5FW-439" value="" style="whiteSpace=wrap;html=1;aspect=fixed;strokeColor=#000000;strokeWidth=2;fillColor=none;fontSize=20;" vertex="1" parent="pFoKC1mQ5wtn172idePt-1">
          <mxGeometry x="700" y="740" width="20" height="20" as="geometry" />
        </mxCell>
        <mxCell id="Fj-yUUgYOXFMrO8vr5FW-440" value="" style="whiteSpace=wrap;html=1;aspect=fixed;strokeColor=#000000;strokeWidth=2;fillColor=none;fontSize=20;" vertex="1" parent="pFoKC1mQ5wtn172idePt-1">
          <mxGeometry x="720" y="740" width="20" height="20" as="geometry" />
        </mxCell>
        <mxCell id="Fj-yUUgYOXFMrO8vr5FW-441" value="" style="whiteSpace=wrap;html=1;aspect=fixed;strokeColor=#000000;strokeWidth=2;fillColor=none;fontSize=20;" vertex="1" parent="pFoKC1mQ5wtn172idePt-1">
          <mxGeometry x="740" y="740" width="20" height="20" as="geometry" />
        </mxCell>
        <mxCell id="Fj-yUUgYOXFMrO8vr5FW-442" value="" style="whiteSpace=wrap;html=1;aspect=fixed;strokeColor=#000000;strokeWidth=2;fillColor=none;fontSize=20;" vertex="1" parent="pFoKC1mQ5wtn172idePt-1">
          <mxGeometry x="760" y="740" width="20" height="20" as="geometry" />
        </mxCell>
        <mxCell id="Fj-yUUgYOXFMrO8vr5FW-443" value="" style="whiteSpace=wrap;html=1;aspect=fixed;strokeColor=#000000;strokeWidth=2;fillColor=none;fontSize=20;" vertex="1" parent="pFoKC1mQ5wtn172idePt-1">
          <mxGeometry x="780" y="740" width="20" height="20" as="geometry" />
        </mxCell>
        <mxCell id="Fj-yUUgYOXFMrO8vr5FW-444" value="" style="whiteSpace=wrap;html=1;aspect=fixed;strokeColor=#000000;strokeWidth=2;fillColor=none;fontSize=20;" vertex="1" parent="pFoKC1mQ5wtn172idePt-1">
          <mxGeometry x="800" y="740" width="20" height="20" as="geometry" />
        </mxCell>
        <mxCell id="Fj-yUUgYOXFMrO8vr5FW-445" value="" style="whiteSpace=wrap;html=1;aspect=fixed;strokeColor=#000000;strokeWidth=2;fillColor=none;fontSize=20;" vertex="1" parent="pFoKC1mQ5wtn172idePt-1">
          <mxGeometry x="820" y="740" width="20" height="20" as="geometry" />
        </mxCell>
        <mxCell id="Fj-yUUgYOXFMrO8vr5FW-446" value="" style="whiteSpace=wrap;html=1;aspect=fixed;strokeColor=#000000;strokeWidth=2;fillColor=none;fontSize=20;" vertex="1" parent="pFoKC1mQ5wtn172idePt-1">
          <mxGeometry x="840" y="740" width="20" height="20" as="geometry" />
        </mxCell>
        <mxCell id="Fj-yUUgYOXFMrO8vr5FW-447" value="" style="whiteSpace=wrap;html=1;aspect=fixed;strokeColor=#000000;strokeWidth=2;fillColor=none;fontSize=20;" vertex="1" parent="pFoKC1mQ5wtn172idePt-1">
          <mxGeometry x="860" y="740" width="20" height="20" as="geometry" />
        </mxCell>
        <mxCell id="Fj-yUUgYOXFMrO8vr5FW-448" value="" style="whiteSpace=wrap;html=1;aspect=fixed;strokeColor=#000000;strokeWidth=2;fillColor=none;fontSize=20;" vertex="1" parent="pFoKC1mQ5wtn172idePt-1">
          <mxGeometry x="880" y="740" width="20" height="20" as="geometry" />
        </mxCell>
        <mxCell id="Fj-yUUgYOXFMrO8vr5FW-449" value="" style="whiteSpace=wrap;html=1;aspect=fixed;strokeColor=#000000;strokeWidth=2;fillColor=none;fontSize=20;" vertex="1" parent="pFoKC1mQ5wtn172idePt-1">
          <mxGeometry x="900" y="740" width="20" height="20" as="geometry" />
        </mxCell>
        <mxCell id="Fj-yUUgYOXFMrO8vr5FW-450" value="" style="whiteSpace=wrap;html=1;aspect=fixed;strokeColor=#000000;strokeWidth=2;fillColor=none;fontSize=20;" vertex="1" parent="pFoKC1mQ5wtn172idePt-1">
          <mxGeometry x="920" y="740" width="20" height="20" as="geometry" />
        </mxCell>
        <mxCell id="Fj-yUUgYOXFMrO8vr5FW-451" value="" style="whiteSpace=wrap;html=1;aspect=fixed;strokeColor=#000000;strokeWidth=2;fillColor=none;fontSize=20;" vertex="1" parent="pFoKC1mQ5wtn172idePt-1">
          <mxGeometry x="940" y="740" width="20" height="20" as="geometry" />
        </mxCell>
        <mxCell id="Fj-yUUgYOXFMrO8vr5FW-452" value="" style="whiteSpace=wrap;html=1;aspect=fixed;strokeColor=#000000;strokeWidth=2;fillColor=none;fontSize=20;" vertex="1" parent="pFoKC1mQ5wtn172idePt-1">
          <mxGeometry x="960" y="740" width="20" height="20" as="geometry" />
        </mxCell>
        <mxCell id="Fj-yUUgYOXFMrO8vr5FW-453" value="" style="whiteSpace=wrap;html=1;aspect=fixed;strokeColor=#000000;strokeWidth=2;fillColor=none;fontSize=20;" vertex="1" parent="pFoKC1mQ5wtn172idePt-1">
          <mxGeometry x="980" y="740" width="20" height="20" as="geometry" />
        </mxCell>
        <mxCell id="Fj-yUUgYOXFMrO8vr5FW-454" value="" style="whiteSpace=wrap;html=1;aspect=fixed;strokeColor=#000000;strokeWidth=2;fillColor=none;fontSize=20;" vertex="1" parent="pFoKC1mQ5wtn172idePt-1">
          <mxGeometry x="680" y="760" width="20" height="20" as="geometry" />
        </mxCell>
        <mxCell id="Fj-yUUgYOXFMrO8vr5FW-455" value="" style="whiteSpace=wrap;html=1;aspect=fixed;strokeColor=#000000;strokeWidth=2;fillColor=none;fontSize=20;" vertex="1" parent="pFoKC1mQ5wtn172idePt-1">
          <mxGeometry x="700" y="760" width="20" height="20" as="geometry" />
        </mxCell>
        <mxCell id="Fj-yUUgYOXFMrO8vr5FW-456" value="" style="whiteSpace=wrap;html=1;aspect=fixed;strokeColor=#000000;strokeWidth=2;fillColor=none;fontSize=20;" vertex="1" parent="pFoKC1mQ5wtn172idePt-1">
          <mxGeometry x="720" y="760" width="20" height="20" as="geometry" />
        </mxCell>
        <mxCell id="Fj-yUUgYOXFMrO8vr5FW-457" value="" style="whiteSpace=wrap;html=1;aspect=fixed;strokeColor=#000000;strokeWidth=2;fillColor=none;fontSize=20;" vertex="1" parent="pFoKC1mQ5wtn172idePt-1">
          <mxGeometry x="740" y="760" width="20" height="20" as="geometry" />
        </mxCell>
        <mxCell id="Fj-yUUgYOXFMrO8vr5FW-458" value="" style="whiteSpace=wrap;html=1;aspect=fixed;strokeColor=#000000;strokeWidth=2;fillColor=none;fontSize=20;" vertex="1" parent="pFoKC1mQ5wtn172idePt-1">
          <mxGeometry x="760" y="760" width="20" height="20" as="geometry" />
        </mxCell>
        <mxCell id="Fj-yUUgYOXFMrO8vr5FW-459" value="" style="whiteSpace=wrap;html=1;aspect=fixed;strokeColor=#000000;strokeWidth=2;fillColor=none;fontSize=20;" vertex="1" parent="pFoKC1mQ5wtn172idePt-1">
          <mxGeometry x="780" y="760" width="20" height="20" as="geometry" />
        </mxCell>
        <mxCell id="Fj-yUUgYOXFMrO8vr5FW-460" value="" style="whiteSpace=wrap;html=1;aspect=fixed;strokeColor=#000000;strokeWidth=2;fillColor=none;fontSize=20;" vertex="1" parent="pFoKC1mQ5wtn172idePt-1">
          <mxGeometry x="800" y="760" width="20" height="20" as="geometry" />
        </mxCell>
        <mxCell id="Fj-yUUgYOXFMrO8vr5FW-461" value="" style="whiteSpace=wrap;html=1;aspect=fixed;strokeColor=#000000;strokeWidth=2;fillColor=none;fontSize=20;" vertex="1" parent="pFoKC1mQ5wtn172idePt-1">
          <mxGeometry x="820" y="760" width="20" height="20" as="geometry" />
        </mxCell>
        <mxCell id="Fj-yUUgYOXFMrO8vr5FW-462" value="" style="whiteSpace=wrap;html=1;aspect=fixed;strokeColor=#000000;strokeWidth=2;fillColor=none;fontSize=20;" vertex="1" parent="pFoKC1mQ5wtn172idePt-1">
          <mxGeometry x="840" y="760" width="20" height="20" as="geometry" />
        </mxCell>
        <mxCell id="Fj-yUUgYOXFMrO8vr5FW-463" value="" style="whiteSpace=wrap;html=1;aspect=fixed;strokeColor=#000000;strokeWidth=2;fillColor=none;fontSize=20;" vertex="1" parent="pFoKC1mQ5wtn172idePt-1">
          <mxGeometry x="860" y="760" width="20" height="20" as="geometry" />
        </mxCell>
        <mxCell id="Fj-yUUgYOXFMrO8vr5FW-464" value="" style="whiteSpace=wrap;html=1;aspect=fixed;strokeColor=#000000;strokeWidth=2;fillColor=none;fontSize=20;" vertex="1" parent="pFoKC1mQ5wtn172idePt-1">
          <mxGeometry x="880" y="760" width="20" height="20" as="geometry" />
        </mxCell>
        <mxCell id="Fj-yUUgYOXFMrO8vr5FW-465" value="" style="whiteSpace=wrap;html=1;aspect=fixed;strokeColor=#000000;strokeWidth=2;fillColor=none;fontSize=20;" vertex="1" parent="pFoKC1mQ5wtn172idePt-1">
          <mxGeometry x="900" y="760" width="20" height="20" as="geometry" />
        </mxCell>
        <mxCell id="Fj-yUUgYOXFMrO8vr5FW-466" value="" style="whiteSpace=wrap;html=1;aspect=fixed;strokeColor=#000000;strokeWidth=2;fillColor=none;fontSize=20;" vertex="1" parent="pFoKC1mQ5wtn172idePt-1">
          <mxGeometry x="920" y="760" width="20" height="20" as="geometry" />
        </mxCell>
        <mxCell id="Fj-yUUgYOXFMrO8vr5FW-467" value="" style="whiteSpace=wrap;html=1;aspect=fixed;strokeColor=#000000;strokeWidth=2;fillColor=none;fontSize=20;" vertex="1" parent="pFoKC1mQ5wtn172idePt-1">
          <mxGeometry x="940" y="760" width="20" height="20" as="geometry" />
        </mxCell>
        <mxCell id="Fj-yUUgYOXFMrO8vr5FW-468" value="" style="whiteSpace=wrap;html=1;aspect=fixed;strokeColor=#000000;strokeWidth=2;fillColor=none;fontSize=20;" vertex="1" parent="pFoKC1mQ5wtn172idePt-1">
          <mxGeometry x="960" y="760" width="20" height="20" as="geometry" />
        </mxCell>
        <mxCell id="Fj-yUUgYOXFMrO8vr5FW-469" value="" style="whiteSpace=wrap;html=1;aspect=fixed;strokeColor=#000000;strokeWidth=2;fillColor=none;fontSize=20;" vertex="1" parent="pFoKC1mQ5wtn172idePt-1">
          <mxGeometry x="980" y="760" width="20" height="20" as="geometry" />
        </mxCell>
        <mxCell id="Fj-yUUgYOXFMrO8vr5FW-470" value="" style="whiteSpace=wrap;html=1;aspect=fixed;strokeColor=#000000;strokeWidth=2;fillColor=none;fontSize=20;" vertex="1" parent="pFoKC1mQ5wtn172idePt-1">
          <mxGeometry x="680" y="780" width="20" height="20" as="geometry" />
        </mxCell>
        <mxCell id="Fj-yUUgYOXFMrO8vr5FW-471" value="" style="whiteSpace=wrap;html=1;aspect=fixed;strokeColor=#000000;strokeWidth=2;fillColor=none;fontSize=20;" vertex="1" parent="pFoKC1mQ5wtn172idePt-1">
          <mxGeometry x="700" y="780" width="20" height="20" as="geometry" />
        </mxCell>
        <mxCell id="Fj-yUUgYOXFMrO8vr5FW-472" value="" style="whiteSpace=wrap;html=1;aspect=fixed;strokeColor=#000000;strokeWidth=2;fillColor=none;fontSize=20;" vertex="1" parent="pFoKC1mQ5wtn172idePt-1">
          <mxGeometry x="720" y="780" width="20" height="20" as="geometry" />
        </mxCell>
        <mxCell id="Fj-yUUgYOXFMrO8vr5FW-473" value="" style="whiteSpace=wrap;html=1;aspect=fixed;strokeColor=#000000;strokeWidth=2;fillColor=none;fontSize=20;" vertex="1" parent="pFoKC1mQ5wtn172idePt-1">
          <mxGeometry x="740" y="780" width="20" height="20" as="geometry" />
        </mxCell>
        <mxCell id="Fj-yUUgYOXFMrO8vr5FW-474" value="" style="whiteSpace=wrap;html=1;aspect=fixed;strokeColor=#000000;strokeWidth=2;fillColor=none;fontSize=20;" vertex="1" parent="pFoKC1mQ5wtn172idePt-1">
          <mxGeometry x="760" y="780" width="20" height="20" as="geometry" />
        </mxCell>
        <mxCell id="Fj-yUUgYOXFMrO8vr5FW-475" value="" style="whiteSpace=wrap;html=1;aspect=fixed;strokeColor=#000000;strokeWidth=2;fillColor=none;fontSize=20;" vertex="1" parent="pFoKC1mQ5wtn172idePt-1">
          <mxGeometry x="780" y="780" width="20" height="20" as="geometry" />
        </mxCell>
        <mxCell id="Fj-yUUgYOXFMrO8vr5FW-476" value="" style="whiteSpace=wrap;html=1;aspect=fixed;strokeColor=#000000;strokeWidth=2;fillColor=none;fontSize=20;" vertex="1" parent="pFoKC1mQ5wtn172idePt-1">
          <mxGeometry x="800" y="780" width="20" height="20" as="geometry" />
        </mxCell>
        <mxCell id="Fj-yUUgYOXFMrO8vr5FW-477" value="" style="whiteSpace=wrap;html=1;aspect=fixed;strokeColor=#000000;strokeWidth=2;fillColor=none;fontSize=20;" vertex="1" parent="pFoKC1mQ5wtn172idePt-1">
          <mxGeometry x="820" y="780" width="20" height="20" as="geometry" />
        </mxCell>
        <mxCell id="Fj-yUUgYOXFMrO8vr5FW-478" value="" style="whiteSpace=wrap;html=1;aspect=fixed;strokeColor=#000000;strokeWidth=2;fillColor=none;fontSize=20;" vertex="1" parent="pFoKC1mQ5wtn172idePt-1">
          <mxGeometry x="840" y="780" width="20" height="20" as="geometry" />
        </mxCell>
        <mxCell id="Fj-yUUgYOXFMrO8vr5FW-479" value="" style="whiteSpace=wrap;html=1;aspect=fixed;strokeColor=#000000;strokeWidth=2;fillColor=none;fontSize=20;" vertex="1" parent="pFoKC1mQ5wtn172idePt-1">
          <mxGeometry x="860" y="780" width="20" height="20" as="geometry" />
        </mxCell>
        <mxCell id="Fj-yUUgYOXFMrO8vr5FW-480" value="" style="whiteSpace=wrap;html=1;aspect=fixed;strokeColor=#000000;strokeWidth=2;fillColor=none;fontSize=20;" vertex="1" parent="pFoKC1mQ5wtn172idePt-1">
          <mxGeometry x="880" y="780" width="20" height="20" as="geometry" />
        </mxCell>
        <mxCell id="Fj-yUUgYOXFMrO8vr5FW-481" value="" style="whiteSpace=wrap;html=1;aspect=fixed;strokeColor=#000000;strokeWidth=2;fillColor=none;fontSize=20;" vertex="1" parent="pFoKC1mQ5wtn172idePt-1">
          <mxGeometry x="900" y="780" width="20" height="20" as="geometry" />
        </mxCell>
        <mxCell id="Fj-yUUgYOXFMrO8vr5FW-482" value="" style="whiteSpace=wrap;html=1;aspect=fixed;strokeColor=#000000;strokeWidth=2;fillColor=none;fontSize=20;" vertex="1" parent="pFoKC1mQ5wtn172idePt-1">
          <mxGeometry x="920" y="780" width="20" height="20" as="geometry" />
        </mxCell>
        <mxCell id="Fj-yUUgYOXFMrO8vr5FW-483" value="" style="whiteSpace=wrap;html=1;aspect=fixed;strokeColor=#000000;strokeWidth=2;fillColor=none;fontSize=20;" vertex="1" parent="pFoKC1mQ5wtn172idePt-1">
          <mxGeometry x="940" y="780" width="20" height="20" as="geometry" />
        </mxCell>
        <mxCell id="Fj-yUUgYOXFMrO8vr5FW-484" value="" style="whiteSpace=wrap;html=1;aspect=fixed;strokeColor=#000000;strokeWidth=2;fillColor=none;fontSize=20;" vertex="1" parent="pFoKC1mQ5wtn172idePt-1">
          <mxGeometry x="960" y="780" width="20" height="20" as="geometry" />
        </mxCell>
        <mxCell id="Fj-yUUgYOXFMrO8vr5FW-485" value="" style="whiteSpace=wrap;html=1;aspect=fixed;strokeColor=#000000;strokeWidth=2;fillColor=none;fontSize=20;" vertex="1" parent="pFoKC1mQ5wtn172idePt-1">
          <mxGeometry x="980" y="780" width="20" height="20" as="geometry" />
        </mxCell>
        <mxCell id="Fj-yUUgYOXFMrO8vr5FW-486" value="" style="whiteSpace=wrap;html=1;aspect=fixed;strokeColor=#000000;strokeWidth=2;fillColor=none;fontSize=20;" vertex="1" parent="pFoKC1mQ5wtn172idePt-1">
          <mxGeometry x="680" y="800" width="20" height="20" as="geometry" />
        </mxCell>
        <mxCell id="Fj-yUUgYOXFMrO8vr5FW-487" value="" style="whiteSpace=wrap;html=1;aspect=fixed;strokeColor=#000000;strokeWidth=2;fillColor=none;fontSize=20;" vertex="1" parent="pFoKC1mQ5wtn172idePt-1">
          <mxGeometry x="700" y="800" width="20" height="20" as="geometry" />
        </mxCell>
        <mxCell id="Fj-yUUgYOXFMrO8vr5FW-488" value="" style="whiteSpace=wrap;html=1;aspect=fixed;strokeColor=#000000;strokeWidth=2;fillColor=none;fontSize=20;" vertex="1" parent="pFoKC1mQ5wtn172idePt-1">
          <mxGeometry x="720" y="800" width="20" height="20" as="geometry" />
        </mxCell>
        <mxCell id="Fj-yUUgYOXFMrO8vr5FW-489" value="" style="whiteSpace=wrap;html=1;aspect=fixed;strokeColor=#000000;strokeWidth=2;fillColor=none;fontSize=20;" vertex="1" parent="pFoKC1mQ5wtn172idePt-1">
          <mxGeometry x="740" y="800" width="20" height="20" as="geometry" />
        </mxCell>
        <mxCell id="Fj-yUUgYOXFMrO8vr5FW-490" value="" style="whiteSpace=wrap;html=1;aspect=fixed;strokeColor=#000000;strokeWidth=2;fillColor=none;fontSize=20;" vertex="1" parent="pFoKC1mQ5wtn172idePt-1">
          <mxGeometry x="760" y="800" width="20" height="20" as="geometry" />
        </mxCell>
        <mxCell id="Fj-yUUgYOXFMrO8vr5FW-491" value="" style="whiteSpace=wrap;html=1;aspect=fixed;strokeColor=#000000;strokeWidth=2;fillColor=none;fontSize=20;" vertex="1" parent="pFoKC1mQ5wtn172idePt-1">
          <mxGeometry x="780" y="800" width="20" height="20" as="geometry" />
        </mxCell>
        <mxCell id="Fj-yUUgYOXFMrO8vr5FW-492" value="" style="whiteSpace=wrap;html=1;aspect=fixed;strokeColor=#000000;strokeWidth=2;fillColor=none;fontSize=20;" vertex="1" parent="pFoKC1mQ5wtn172idePt-1">
          <mxGeometry x="800" y="800" width="20" height="20" as="geometry" />
        </mxCell>
        <mxCell id="Fj-yUUgYOXFMrO8vr5FW-493" value="" style="whiteSpace=wrap;html=1;aspect=fixed;strokeColor=#000000;strokeWidth=2;fillColor=none;fontSize=20;" vertex="1" parent="pFoKC1mQ5wtn172idePt-1">
          <mxGeometry x="820" y="800" width="20" height="20" as="geometry" />
        </mxCell>
        <mxCell id="Fj-yUUgYOXFMrO8vr5FW-494" value="" style="whiteSpace=wrap;html=1;aspect=fixed;strokeColor=#000000;strokeWidth=2;fillColor=none;fontSize=20;" vertex="1" parent="pFoKC1mQ5wtn172idePt-1">
          <mxGeometry x="840" y="800" width="20" height="20" as="geometry" />
        </mxCell>
        <mxCell id="Fj-yUUgYOXFMrO8vr5FW-495" value="" style="whiteSpace=wrap;html=1;aspect=fixed;strokeColor=#000000;strokeWidth=2;fillColor=none;fontSize=20;" vertex="1" parent="pFoKC1mQ5wtn172idePt-1">
          <mxGeometry x="860" y="800" width="20" height="20" as="geometry" />
        </mxCell>
        <mxCell id="Fj-yUUgYOXFMrO8vr5FW-496" value="" style="whiteSpace=wrap;html=1;aspect=fixed;strokeColor=#000000;strokeWidth=2;fillColor=none;fontSize=20;" vertex="1" parent="pFoKC1mQ5wtn172idePt-1">
          <mxGeometry x="880" y="800" width="20" height="20" as="geometry" />
        </mxCell>
        <mxCell id="Fj-yUUgYOXFMrO8vr5FW-497" value="" style="whiteSpace=wrap;html=1;aspect=fixed;strokeColor=#000000;strokeWidth=2;fillColor=none;fontSize=20;" vertex="1" parent="pFoKC1mQ5wtn172idePt-1">
          <mxGeometry x="900" y="800" width="20" height="20" as="geometry" />
        </mxCell>
        <mxCell id="Fj-yUUgYOXFMrO8vr5FW-498" value="" style="whiteSpace=wrap;html=1;aspect=fixed;strokeColor=#000000;strokeWidth=2;fillColor=none;fontSize=20;" vertex="1" parent="pFoKC1mQ5wtn172idePt-1">
          <mxGeometry x="920" y="800" width="20" height="20" as="geometry" />
        </mxCell>
        <mxCell id="Fj-yUUgYOXFMrO8vr5FW-499" value="" style="whiteSpace=wrap;html=1;aspect=fixed;strokeColor=#000000;strokeWidth=2;fillColor=none;fontSize=20;" vertex="1" parent="pFoKC1mQ5wtn172idePt-1">
          <mxGeometry x="940" y="800" width="20" height="20" as="geometry" />
        </mxCell>
        <mxCell id="Fj-yUUgYOXFMrO8vr5FW-500" value="" style="whiteSpace=wrap;html=1;aspect=fixed;strokeColor=#000000;strokeWidth=2;fillColor=none;fontSize=20;" vertex="1" parent="pFoKC1mQ5wtn172idePt-1">
          <mxGeometry x="960" y="800" width="20" height="20" as="geometry" />
        </mxCell>
        <mxCell id="Fj-yUUgYOXFMrO8vr5FW-501" value="" style="whiteSpace=wrap;html=1;aspect=fixed;strokeColor=#000000;strokeWidth=2;fillColor=none;fontSize=20;" vertex="1" parent="pFoKC1mQ5wtn172idePt-1">
          <mxGeometry x="980" y="800" width="20" height="20" as="geometry" />
        </mxCell>
        <mxCell id="Fj-yUUgYOXFMrO8vr5FW-502" value="" style="whiteSpace=wrap;html=1;aspect=fixed;strokeColor=#000000;strokeWidth=2;fillColor=none;fontSize=20;" vertex="1" parent="pFoKC1mQ5wtn172idePt-1">
          <mxGeometry x="680" y="820" width="20" height="20" as="geometry" />
        </mxCell>
        <mxCell id="Fj-yUUgYOXFMrO8vr5FW-503" value="" style="whiteSpace=wrap;html=1;aspect=fixed;strokeColor=#000000;strokeWidth=2;fillColor=none;fontSize=20;" vertex="1" parent="pFoKC1mQ5wtn172idePt-1">
          <mxGeometry x="700" y="820" width="20" height="20" as="geometry" />
        </mxCell>
        <mxCell id="Fj-yUUgYOXFMrO8vr5FW-504" value="" style="whiteSpace=wrap;html=1;aspect=fixed;strokeColor=#000000;strokeWidth=2;fillColor=none;fontSize=20;" vertex="1" parent="pFoKC1mQ5wtn172idePt-1">
          <mxGeometry x="720" y="820" width="20" height="20" as="geometry" />
        </mxCell>
        <mxCell id="Fj-yUUgYOXFMrO8vr5FW-505" value="" style="whiteSpace=wrap;html=1;aspect=fixed;strokeColor=#000000;strokeWidth=2;fillColor=none;fontSize=20;" vertex="1" parent="pFoKC1mQ5wtn172idePt-1">
          <mxGeometry x="740" y="820" width="20" height="20" as="geometry" />
        </mxCell>
        <mxCell id="Fj-yUUgYOXFMrO8vr5FW-506" value="" style="whiteSpace=wrap;html=1;aspect=fixed;strokeColor=#000000;strokeWidth=2;fillColor=none;fontSize=20;" vertex="1" parent="pFoKC1mQ5wtn172idePt-1">
          <mxGeometry x="760" y="820" width="20" height="20" as="geometry" />
        </mxCell>
        <mxCell id="Fj-yUUgYOXFMrO8vr5FW-507" value="" style="whiteSpace=wrap;html=1;aspect=fixed;strokeColor=#000000;strokeWidth=2;fillColor=none;fontSize=20;" vertex="1" parent="pFoKC1mQ5wtn172idePt-1">
          <mxGeometry x="780" y="820" width="20" height="20" as="geometry" />
        </mxCell>
        <mxCell id="Fj-yUUgYOXFMrO8vr5FW-508" value="" style="whiteSpace=wrap;html=1;aspect=fixed;strokeColor=#000000;strokeWidth=2;fillColor=none;fontSize=20;" vertex="1" parent="pFoKC1mQ5wtn172idePt-1">
          <mxGeometry x="800" y="820" width="20" height="20" as="geometry" />
        </mxCell>
        <mxCell id="Fj-yUUgYOXFMrO8vr5FW-509" value="" style="whiteSpace=wrap;html=1;aspect=fixed;strokeColor=#000000;strokeWidth=2;fillColor=none;fontSize=20;" vertex="1" parent="pFoKC1mQ5wtn172idePt-1">
          <mxGeometry x="820" y="820" width="20" height="20" as="geometry" />
        </mxCell>
        <mxCell id="Fj-yUUgYOXFMrO8vr5FW-510" value="" style="whiteSpace=wrap;html=1;aspect=fixed;strokeColor=#000000;strokeWidth=2;fillColor=none;fontSize=20;" vertex="1" parent="pFoKC1mQ5wtn172idePt-1">
          <mxGeometry x="840" y="820" width="20" height="20" as="geometry" />
        </mxCell>
        <mxCell id="Fj-yUUgYOXFMrO8vr5FW-511" value="" style="whiteSpace=wrap;html=1;aspect=fixed;strokeColor=#000000;strokeWidth=2;fillColor=none;fontSize=20;" vertex="1" parent="pFoKC1mQ5wtn172idePt-1">
          <mxGeometry x="860" y="820" width="20" height="20" as="geometry" />
        </mxCell>
        <mxCell id="Fj-yUUgYOXFMrO8vr5FW-512" value="" style="whiteSpace=wrap;html=1;aspect=fixed;strokeColor=#000000;strokeWidth=2;fillColor=none;fontSize=20;" vertex="1" parent="pFoKC1mQ5wtn172idePt-1">
          <mxGeometry x="880" y="820" width="20" height="20" as="geometry" />
        </mxCell>
        <mxCell id="Fj-yUUgYOXFMrO8vr5FW-513" value="" style="whiteSpace=wrap;html=1;aspect=fixed;strokeColor=#000000;strokeWidth=2;fillColor=none;fontSize=20;" vertex="1" parent="pFoKC1mQ5wtn172idePt-1">
          <mxGeometry x="900" y="820" width="20" height="20" as="geometry" />
        </mxCell>
        <mxCell id="Fj-yUUgYOXFMrO8vr5FW-514" value="" style="whiteSpace=wrap;html=1;aspect=fixed;strokeColor=#000000;strokeWidth=2;fillColor=none;fontSize=20;" vertex="1" parent="pFoKC1mQ5wtn172idePt-1">
          <mxGeometry x="920" y="820" width="20" height="20" as="geometry" />
        </mxCell>
        <mxCell id="Fj-yUUgYOXFMrO8vr5FW-515" value="" style="whiteSpace=wrap;html=1;aspect=fixed;strokeColor=#000000;strokeWidth=2;fillColor=none;fontSize=20;" vertex="1" parent="pFoKC1mQ5wtn172idePt-1">
          <mxGeometry x="940" y="820" width="20" height="20" as="geometry" />
        </mxCell>
        <mxCell id="Fj-yUUgYOXFMrO8vr5FW-516" value="" style="whiteSpace=wrap;html=1;aspect=fixed;strokeColor=#000000;strokeWidth=2;fillColor=none;fontSize=20;" vertex="1" parent="pFoKC1mQ5wtn172idePt-1">
          <mxGeometry x="960" y="820" width="20" height="20" as="geometry" />
        </mxCell>
        <mxCell id="Fj-yUUgYOXFMrO8vr5FW-517" value="" style="whiteSpace=wrap;html=1;aspect=fixed;strokeColor=#000000;strokeWidth=2;fillColor=none;fontSize=20;" vertex="1" parent="pFoKC1mQ5wtn172idePt-1">
          <mxGeometry x="980" y="820" width="20" height="20" as="geometry" />
        </mxCell>
        <mxCell id="Fj-yUUgYOXFMrO8vr5FW-518" value="" style="whiteSpace=wrap;html=1;aspect=fixed;strokeColor=#000000;strokeWidth=2;fillColor=none;fontSize=20;" vertex="1" parent="pFoKC1mQ5wtn172idePt-1">
          <mxGeometry x="680" y="840" width="20" height="20" as="geometry" />
        </mxCell>
        <mxCell id="Fj-yUUgYOXFMrO8vr5FW-519" value="" style="whiteSpace=wrap;html=1;aspect=fixed;strokeColor=#000000;strokeWidth=2;fillColor=none;fontSize=20;" vertex="1" parent="pFoKC1mQ5wtn172idePt-1">
          <mxGeometry x="700" y="840" width="20" height="20" as="geometry" />
        </mxCell>
        <mxCell id="Fj-yUUgYOXFMrO8vr5FW-520" value="" style="whiteSpace=wrap;html=1;aspect=fixed;strokeColor=#000000;strokeWidth=2;fillColor=none;fontSize=20;" vertex="1" parent="pFoKC1mQ5wtn172idePt-1">
          <mxGeometry x="720" y="840" width="20" height="20" as="geometry" />
        </mxCell>
        <mxCell id="Fj-yUUgYOXFMrO8vr5FW-521" value="" style="whiteSpace=wrap;html=1;aspect=fixed;strokeColor=#000000;strokeWidth=2;fillColor=none;fontSize=20;" vertex="1" parent="pFoKC1mQ5wtn172idePt-1">
          <mxGeometry x="740" y="840" width="20" height="20" as="geometry" />
        </mxCell>
        <mxCell id="Fj-yUUgYOXFMrO8vr5FW-522" value="" style="whiteSpace=wrap;html=1;aspect=fixed;strokeColor=#000000;strokeWidth=2;fillColor=none;fontSize=20;" vertex="1" parent="pFoKC1mQ5wtn172idePt-1">
          <mxGeometry x="760" y="840" width="20" height="20" as="geometry" />
        </mxCell>
        <mxCell id="Fj-yUUgYOXFMrO8vr5FW-523" value="" style="whiteSpace=wrap;html=1;aspect=fixed;strokeColor=#000000;strokeWidth=2;fillColor=none;fontSize=20;" vertex="1" parent="pFoKC1mQ5wtn172idePt-1">
          <mxGeometry x="780" y="840" width="20" height="20" as="geometry" />
        </mxCell>
        <mxCell id="Fj-yUUgYOXFMrO8vr5FW-524" value="" style="whiteSpace=wrap;html=1;aspect=fixed;strokeColor=#000000;strokeWidth=2;fillColor=none;fontSize=20;" vertex="1" parent="pFoKC1mQ5wtn172idePt-1">
          <mxGeometry x="800" y="840" width="20" height="20" as="geometry" />
        </mxCell>
        <mxCell id="Fj-yUUgYOXFMrO8vr5FW-525" value="" style="whiteSpace=wrap;html=1;aspect=fixed;strokeColor=#000000;strokeWidth=2;fillColor=none;fontSize=20;" vertex="1" parent="pFoKC1mQ5wtn172idePt-1">
          <mxGeometry x="820" y="840" width="20" height="20" as="geometry" />
        </mxCell>
        <mxCell id="Fj-yUUgYOXFMrO8vr5FW-526" value="" style="whiteSpace=wrap;html=1;aspect=fixed;strokeColor=#000000;strokeWidth=2;fillColor=none;fontSize=20;" vertex="1" parent="pFoKC1mQ5wtn172idePt-1">
          <mxGeometry x="840" y="840" width="20" height="20" as="geometry" />
        </mxCell>
        <mxCell id="Fj-yUUgYOXFMrO8vr5FW-527" value="" style="whiteSpace=wrap;html=1;aspect=fixed;strokeColor=#000000;strokeWidth=2;fillColor=none;fontSize=20;" vertex="1" parent="pFoKC1mQ5wtn172idePt-1">
          <mxGeometry x="860" y="840" width="20" height="20" as="geometry" />
        </mxCell>
        <mxCell id="Fj-yUUgYOXFMrO8vr5FW-528" value="" style="whiteSpace=wrap;html=1;aspect=fixed;strokeColor=#000000;strokeWidth=2;fillColor=none;fontSize=20;" vertex="1" parent="pFoKC1mQ5wtn172idePt-1">
          <mxGeometry x="880" y="840" width="20" height="20" as="geometry" />
        </mxCell>
        <mxCell id="Fj-yUUgYOXFMrO8vr5FW-529" value="" style="whiteSpace=wrap;html=1;aspect=fixed;strokeColor=#000000;strokeWidth=2;fillColor=none;fontSize=20;" vertex="1" parent="pFoKC1mQ5wtn172idePt-1">
          <mxGeometry x="900" y="840" width="20" height="20" as="geometry" />
        </mxCell>
        <mxCell id="Fj-yUUgYOXFMrO8vr5FW-530" value="" style="whiteSpace=wrap;html=1;aspect=fixed;strokeColor=#000000;strokeWidth=2;fillColor=none;fontSize=20;" vertex="1" parent="pFoKC1mQ5wtn172idePt-1">
          <mxGeometry x="920" y="840" width="20" height="20" as="geometry" />
        </mxCell>
        <mxCell id="Fj-yUUgYOXFMrO8vr5FW-531" value="" style="whiteSpace=wrap;html=1;aspect=fixed;strokeColor=#000000;strokeWidth=2;fillColor=none;fontSize=20;" vertex="1" parent="pFoKC1mQ5wtn172idePt-1">
          <mxGeometry x="940" y="840" width="20" height="20" as="geometry" />
        </mxCell>
        <mxCell id="Fj-yUUgYOXFMrO8vr5FW-532" value="" style="whiteSpace=wrap;html=1;aspect=fixed;strokeColor=#000000;strokeWidth=2;fillColor=none;fontSize=20;" vertex="1" parent="pFoKC1mQ5wtn172idePt-1">
          <mxGeometry x="960" y="840" width="20" height="20" as="geometry" />
        </mxCell>
        <mxCell id="Fj-yUUgYOXFMrO8vr5FW-533" value="" style="whiteSpace=wrap;html=1;aspect=fixed;strokeColor=#000000;strokeWidth=2;fillColor=none;fontSize=20;" vertex="1" parent="pFoKC1mQ5wtn172idePt-1">
          <mxGeometry x="980" y="840" width="20" height="20" as="geometry" />
        </mxCell>
        <mxCell id="Fj-yUUgYOXFMrO8vr5FW-534" value="" style="whiteSpace=wrap;html=1;aspect=fixed;strokeColor=#000000;strokeWidth=2;fillColor=none;fontSize=20;" vertex="1" parent="pFoKC1mQ5wtn172idePt-1">
          <mxGeometry x="680" y="860" width="20" height="20" as="geometry" />
        </mxCell>
        <mxCell id="Fj-yUUgYOXFMrO8vr5FW-535" value="" style="whiteSpace=wrap;html=1;aspect=fixed;strokeColor=#000000;strokeWidth=2;fillColor=none;fontSize=20;" vertex="1" parent="pFoKC1mQ5wtn172idePt-1">
          <mxGeometry x="700" y="860" width="20" height="20" as="geometry" />
        </mxCell>
        <mxCell id="Fj-yUUgYOXFMrO8vr5FW-536" value="" style="whiteSpace=wrap;html=1;aspect=fixed;strokeColor=#000000;strokeWidth=2;fillColor=none;fontSize=20;" vertex="1" parent="pFoKC1mQ5wtn172idePt-1">
          <mxGeometry x="720" y="860" width="20" height="20" as="geometry" />
        </mxCell>
        <mxCell id="Fj-yUUgYOXFMrO8vr5FW-537" value="" style="whiteSpace=wrap;html=1;aspect=fixed;strokeColor=#000000;strokeWidth=2;fillColor=none;fontSize=20;" vertex="1" parent="pFoKC1mQ5wtn172idePt-1">
          <mxGeometry x="740" y="860" width="20" height="20" as="geometry" />
        </mxCell>
        <mxCell id="Fj-yUUgYOXFMrO8vr5FW-538" value="" style="whiteSpace=wrap;html=1;aspect=fixed;strokeColor=#000000;strokeWidth=2;fillColor=none;fontSize=20;" vertex="1" parent="pFoKC1mQ5wtn172idePt-1">
          <mxGeometry x="760" y="860" width="20" height="20" as="geometry" />
        </mxCell>
        <mxCell id="Fj-yUUgYOXFMrO8vr5FW-539" value="" style="whiteSpace=wrap;html=1;aspect=fixed;strokeColor=#000000;strokeWidth=2;fillColor=none;fontSize=20;" vertex="1" parent="pFoKC1mQ5wtn172idePt-1">
          <mxGeometry x="780" y="860" width="20" height="20" as="geometry" />
        </mxCell>
        <mxCell id="Fj-yUUgYOXFMrO8vr5FW-540" value="" style="whiteSpace=wrap;html=1;aspect=fixed;strokeColor=#000000;strokeWidth=2;fillColor=none;fontSize=20;" vertex="1" parent="pFoKC1mQ5wtn172idePt-1">
          <mxGeometry x="800" y="860" width="20" height="20" as="geometry" />
        </mxCell>
        <mxCell id="Fj-yUUgYOXFMrO8vr5FW-541" value="" style="whiteSpace=wrap;html=1;aspect=fixed;strokeColor=#000000;strokeWidth=2;fillColor=none;fontSize=20;" vertex="1" parent="pFoKC1mQ5wtn172idePt-1">
          <mxGeometry x="820" y="860" width="20" height="20" as="geometry" />
        </mxCell>
        <mxCell id="Fj-yUUgYOXFMrO8vr5FW-542" value="" style="whiteSpace=wrap;html=1;aspect=fixed;strokeColor=#000000;strokeWidth=2;fillColor=none;fontSize=20;" vertex="1" parent="pFoKC1mQ5wtn172idePt-1">
          <mxGeometry x="840" y="860" width="20" height="20" as="geometry" />
        </mxCell>
        <mxCell id="Fj-yUUgYOXFMrO8vr5FW-543" value="" style="whiteSpace=wrap;html=1;aspect=fixed;strokeColor=#000000;strokeWidth=2;fillColor=none;fontSize=20;" vertex="1" parent="pFoKC1mQ5wtn172idePt-1">
          <mxGeometry x="860" y="860" width="20" height="20" as="geometry" />
        </mxCell>
        <mxCell id="Fj-yUUgYOXFMrO8vr5FW-544" value="" style="whiteSpace=wrap;html=1;aspect=fixed;strokeColor=#000000;strokeWidth=2;fillColor=none;fontSize=20;" vertex="1" parent="pFoKC1mQ5wtn172idePt-1">
          <mxGeometry x="880" y="860" width="20" height="20" as="geometry" />
        </mxCell>
        <mxCell id="Fj-yUUgYOXFMrO8vr5FW-545" value="" style="whiteSpace=wrap;html=1;aspect=fixed;strokeColor=#000000;strokeWidth=2;fillColor=none;fontSize=20;" vertex="1" parent="pFoKC1mQ5wtn172idePt-1">
          <mxGeometry x="900" y="860" width="20" height="20" as="geometry" />
        </mxCell>
        <mxCell id="Fj-yUUgYOXFMrO8vr5FW-546" value="" style="whiteSpace=wrap;html=1;aspect=fixed;strokeColor=#000000;strokeWidth=2;fillColor=none;fontSize=20;" vertex="1" parent="pFoKC1mQ5wtn172idePt-1">
          <mxGeometry x="920" y="860" width="20" height="20" as="geometry" />
        </mxCell>
        <mxCell id="Fj-yUUgYOXFMrO8vr5FW-547" value="" style="whiteSpace=wrap;html=1;aspect=fixed;strokeColor=#000000;strokeWidth=2;fillColor=none;fontSize=20;" vertex="1" parent="pFoKC1mQ5wtn172idePt-1">
          <mxGeometry x="940" y="860" width="20" height="20" as="geometry" />
        </mxCell>
        <mxCell id="Fj-yUUgYOXFMrO8vr5FW-548" value="" style="whiteSpace=wrap;html=1;aspect=fixed;strokeColor=#000000;strokeWidth=2;fillColor=none;fontSize=20;" vertex="1" parent="pFoKC1mQ5wtn172idePt-1">
          <mxGeometry x="960" y="860" width="20" height="20" as="geometry" />
        </mxCell>
        <mxCell id="Fj-yUUgYOXFMrO8vr5FW-549" value="" style="whiteSpace=wrap;html=1;aspect=fixed;strokeColor=#000000;strokeWidth=2;fillColor=none;fontSize=20;" vertex="1" parent="pFoKC1mQ5wtn172idePt-1">
          <mxGeometry x="980" y="860" width="20" height="20" as="geometry" />
        </mxCell>
        <mxCell id="Fj-yUUgYOXFMrO8vr5FW-550" value="" style="whiteSpace=wrap;html=1;aspect=fixed;strokeColor=#000000;strokeWidth=2;fillColor=none;fontSize=20;" vertex="1" parent="pFoKC1mQ5wtn172idePt-1">
          <mxGeometry x="680" y="880" width="20" height="20" as="geometry" />
        </mxCell>
        <mxCell id="Fj-yUUgYOXFMrO8vr5FW-551" value="" style="whiteSpace=wrap;html=1;aspect=fixed;strokeColor=#000000;strokeWidth=2;fillColor=none;fontSize=20;" vertex="1" parent="pFoKC1mQ5wtn172idePt-1">
          <mxGeometry x="700" y="880" width="20" height="20" as="geometry" />
        </mxCell>
        <mxCell id="Fj-yUUgYOXFMrO8vr5FW-552" value="" style="whiteSpace=wrap;html=1;aspect=fixed;strokeColor=#000000;strokeWidth=2;fillColor=none;fontSize=20;" vertex="1" parent="pFoKC1mQ5wtn172idePt-1">
          <mxGeometry x="720" y="880" width="20" height="20" as="geometry" />
        </mxCell>
        <mxCell id="Fj-yUUgYOXFMrO8vr5FW-553" value="" style="whiteSpace=wrap;html=1;aspect=fixed;strokeColor=#000000;strokeWidth=2;fillColor=none;fontSize=20;" vertex="1" parent="pFoKC1mQ5wtn172idePt-1">
          <mxGeometry x="740" y="880" width="20" height="20" as="geometry" />
        </mxCell>
        <mxCell id="Fj-yUUgYOXFMrO8vr5FW-554" value="" style="whiteSpace=wrap;html=1;aspect=fixed;strokeColor=#000000;strokeWidth=2;fillColor=none;fontSize=20;" vertex="1" parent="pFoKC1mQ5wtn172idePt-1">
          <mxGeometry x="760" y="880" width="20" height="20" as="geometry" />
        </mxCell>
        <mxCell id="Fj-yUUgYOXFMrO8vr5FW-555" value="" style="whiteSpace=wrap;html=1;aspect=fixed;strokeColor=#000000;strokeWidth=2;fillColor=none;fontSize=20;" vertex="1" parent="pFoKC1mQ5wtn172idePt-1">
          <mxGeometry x="780" y="880" width="20" height="20" as="geometry" />
        </mxCell>
        <mxCell id="Fj-yUUgYOXFMrO8vr5FW-556" value="" style="whiteSpace=wrap;html=1;aspect=fixed;strokeColor=#000000;strokeWidth=2;fillColor=none;fontSize=20;" vertex="1" parent="pFoKC1mQ5wtn172idePt-1">
          <mxGeometry x="800" y="880" width="20" height="20" as="geometry" />
        </mxCell>
        <mxCell id="Fj-yUUgYOXFMrO8vr5FW-557" value="" style="whiteSpace=wrap;html=1;aspect=fixed;strokeColor=#000000;strokeWidth=2;fillColor=none;fontSize=20;" vertex="1" parent="pFoKC1mQ5wtn172idePt-1">
          <mxGeometry x="820" y="880" width="20" height="20" as="geometry" />
        </mxCell>
        <mxCell id="Fj-yUUgYOXFMrO8vr5FW-558" value="" style="whiteSpace=wrap;html=1;aspect=fixed;strokeColor=#000000;strokeWidth=2;fillColor=none;fontSize=20;" vertex="1" parent="pFoKC1mQ5wtn172idePt-1">
          <mxGeometry x="840" y="880" width="20" height="20" as="geometry" />
        </mxCell>
        <mxCell id="Fj-yUUgYOXFMrO8vr5FW-559" value="" style="whiteSpace=wrap;html=1;aspect=fixed;strokeColor=#000000;strokeWidth=2;fillColor=none;fontSize=20;" vertex="1" parent="pFoKC1mQ5wtn172idePt-1">
          <mxGeometry x="860" y="880" width="20" height="20" as="geometry" />
        </mxCell>
        <mxCell id="Fj-yUUgYOXFMrO8vr5FW-560" value="" style="whiteSpace=wrap;html=1;aspect=fixed;strokeColor=#000000;strokeWidth=2;fillColor=none;fontSize=20;" vertex="1" parent="pFoKC1mQ5wtn172idePt-1">
          <mxGeometry x="880" y="880" width="20" height="20" as="geometry" />
        </mxCell>
        <mxCell id="Fj-yUUgYOXFMrO8vr5FW-561" value="" style="whiteSpace=wrap;html=1;aspect=fixed;strokeColor=#000000;strokeWidth=2;fillColor=none;fontSize=20;" vertex="1" parent="pFoKC1mQ5wtn172idePt-1">
          <mxGeometry x="900" y="880" width="20" height="20" as="geometry" />
        </mxCell>
        <mxCell id="Fj-yUUgYOXFMrO8vr5FW-562" value="" style="whiteSpace=wrap;html=1;aspect=fixed;strokeColor=#000000;strokeWidth=2;fillColor=none;fontSize=20;" vertex="1" parent="pFoKC1mQ5wtn172idePt-1">
          <mxGeometry x="920" y="880" width="20" height="20" as="geometry" />
        </mxCell>
        <mxCell id="Fj-yUUgYOXFMrO8vr5FW-563" value="" style="whiteSpace=wrap;html=1;aspect=fixed;strokeColor=#000000;strokeWidth=2;fillColor=none;fontSize=20;" vertex="1" parent="pFoKC1mQ5wtn172idePt-1">
          <mxGeometry x="940" y="880" width="20" height="20" as="geometry" />
        </mxCell>
        <mxCell id="Fj-yUUgYOXFMrO8vr5FW-564" value="" style="whiteSpace=wrap;html=1;aspect=fixed;strokeColor=#000000;strokeWidth=2;fillColor=none;fontSize=20;" vertex="1" parent="pFoKC1mQ5wtn172idePt-1">
          <mxGeometry x="960" y="880" width="20" height="20" as="geometry" />
        </mxCell>
        <mxCell id="Fj-yUUgYOXFMrO8vr5FW-565" value="" style="whiteSpace=wrap;html=1;aspect=fixed;strokeColor=#000000;strokeWidth=2;fillColor=none;fontSize=20;" vertex="1" parent="pFoKC1mQ5wtn172idePt-1">
          <mxGeometry x="980" y="880" width="20" height="20" as="geometry" />
        </mxCell>
        <mxCell id="Fj-yUUgYOXFMrO8vr5FW-566" value="" style="whiteSpace=wrap;html=1;aspect=fixed;strokeColor=#000000;strokeWidth=2;fillColor=none;fontSize=20;" vertex="1" parent="pFoKC1mQ5wtn172idePt-1">
          <mxGeometry x="680" y="900" width="20" height="20" as="geometry" />
        </mxCell>
        <mxCell id="Fj-yUUgYOXFMrO8vr5FW-567" value="" style="whiteSpace=wrap;html=1;aspect=fixed;strokeColor=#000000;strokeWidth=2;fillColor=none;fontSize=20;" vertex="1" parent="pFoKC1mQ5wtn172idePt-1">
          <mxGeometry x="700" y="900" width="20" height="20" as="geometry" />
        </mxCell>
        <mxCell id="Fj-yUUgYOXFMrO8vr5FW-568" value="" style="whiteSpace=wrap;html=1;aspect=fixed;strokeColor=#000000;strokeWidth=2;fillColor=none;fontSize=20;" vertex="1" parent="pFoKC1mQ5wtn172idePt-1">
          <mxGeometry x="720" y="900" width="20" height="20" as="geometry" />
        </mxCell>
        <mxCell id="Fj-yUUgYOXFMrO8vr5FW-569" value="" style="whiteSpace=wrap;html=1;aspect=fixed;strokeColor=#000000;strokeWidth=2;fillColor=none;fontSize=20;" vertex="1" parent="pFoKC1mQ5wtn172idePt-1">
          <mxGeometry x="740" y="900" width="20" height="20" as="geometry" />
        </mxCell>
        <mxCell id="Fj-yUUgYOXFMrO8vr5FW-570" value="" style="whiteSpace=wrap;html=1;aspect=fixed;strokeColor=#000000;strokeWidth=2;fillColor=none;fontSize=20;" vertex="1" parent="pFoKC1mQ5wtn172idePt-1">
          <mxGeometry x="760" y="900" width="20" height="20" as="geometry" />
        </mxCell>
        <mxCell id="Fj-yUUgYOXFMrO8vr5FW-571" value="" style="whiteSpace=wrap;html=1;aspect=fixed;strokeColor=#000000;strokeWidth=2;fillColor=none;fontSize=20;" vertex="1" parent="pFoKC1mQ5wtn172idePt-1">
          <mxGeometry x="780" y="900" width="20" height="20" as="geometry" />
        </mxCell>
        <mxCell id="Fj-yUUgYOXFMrO8vr5FW-572" value="" style="whiteSpace=wrap;html=1;aspect=fixed;strokeColor=#000000;strokeWidth=2;fillColor=none;fontSize=20;" vertex="1" parent="pFoKC1mQ5wtn172idePt-1">
          <mxGeometry x="800" y="900" width="20" height="20" as="geometry" />
        </mxCell>
        <mxCell id="Fj-yUUgYOXFMrO8vr5FW-573" value="" style="whiteSpace=wrap;html=1;aspect=fixed;strokeColor=#000000;strokeWidth=2;fillColor=none;fontSize=20;" vertex="1" parent="pFoKC1mQ5wtn172idePt-1">
          <mxGeometry x="820" y="900" width="20" height="20" as="geometry" />
        </mxCell>
        <mxCell id="Fj-yUUgYOXFMrO8vr5FW-574" value="" style="whiteSpace=wrap;html=1;aspect=fixed;strokeColor=#000000;strokeWidth=2;fillColor=none;fontSize=20;" vertex="1" parent="pFoKC1mQ5wtn172idePt-1">
          <mxGeometry x="840" y="900" width="20" height="20" as="geometry" />
        </mxCell>
        <mxCell id="Fj-yUUgYOXFMrO8vr5FW-575" value="" style="whiteSpace=wrap;html=1;aspect=fixed;strokeColor=#000000;strokeWidth=2;fillColor=none;fontSize=20;" vertex="1" parent="pFoKC1mQ5wtn172idePt-1">
          <mxGeometry x="860" y="900" width="20" height="20" as="geometry" />
        </mxCell>
        <mxCell id="Fj-yUUgYOXFMrO8vr5FW-576" value="" style="whiteSpace=wrap;html=1;aspect=fixed;strokeColor=#000000;strokeWidth=2;fillColor=none;fontSize=20;" vertex="1" parent="pFoKC1mQ5wtn172idePt-1">
          <mxGeometry x="880" y="900" width="20" height="20" as="geometry" />
        </mxCell>
        <mxCell id="Fj-yUUgYOXFMrO8vr5FW-577" value="" style="whiteSpace=wrap;html=1;aspect=fixed;strokeColor=#000000;strokeWidth=2;fillColor=none;fontSize=20;" vertex="1" parent="pFoKC1mQ5wtn172idePt-1">
          <mxGeometry x="900" y="900" width="20" height="20" as="geometry" />
        </mxCell>
        <mxCell id="Fj-yUUgYOXFMrO8vr5FW-578" value="" style="whiteSpace=wrap;html=1;aspect=fixed;strokeColor=#000000;strokeWidth=2;fillColor=none;fontSize=20;" vertex="1" parent="pFoKC1mQ5wtn172idePt-1">
          <mxGeometry x="920" y="900" width="20" height="20" as="geometry" />
        </mxCell>
        <mxCell id="Fj-yUUgYOXFMrO8vr5FW-579" value="" style="whiteSpace=wrap;html=1;aspect=fixed;strokeColor=#000000;strokeWidth=2;fillColor=none;fontSize=20;" vertex="1" parent="pFoKC1mQ5wtn172idePt-1">
          <mxGeometry x="940" y="900" width="20" height="20" as="geometry" />
        </mxCell>
        <mxCell id="Fj-yUUgYOXFMrO8vr5FW-580" value="" style="whiteSpace=wrap;html=1;aspect=fixed;strokeColor=#000000;strokeWidth=2;fillColor=none;fontSize=20;" vertex="1" parent="pFoKC1mQ5wtn172idePt-1">
          <mxGeometry x="960" y="900" width="20" height="20" as="geometry" />
        </mxCell>
        <mxCell id="Fj-yUUgYOXFMrO8vr5FW-581" value="" style="whiteSpace=wrap;html=1;aspect=fixed;strokeColor=#000000;strokeWidth=2;fillColor=none;fontSize=20;" vertex="1" parent="pFoKC1mQ5wtn172idePt-1">
          <mxGeometry x="980" y="900" width="20" height="20" as="geometry" />
        </mxCell>
        <mxCell id="Fj-yUUgYOXFMrO8vr5FW-582" value="" style="whiteSpace=wrap;html=1;aspect=fixed;strokeColor=#000000;strokeWidth=2;fillColor=none;fontSize=20;" vertex="1" parent="pFoKC1mQ5wtn172idePt-1">
          <mxGeometry x="680" y="920" width="20" height="20" as="geometry" />
        </mxCell>
        <mxCell id="Fj-yUUgYOXFMrO8vr5FW-583" value="" style="whiteSpace=wrap;html=1;aspect=fixed;strokeColor=#000000;strokeWidth=2;fillColor=none;fontSize=20;" vertex="1" parent="pFoKC1mQ5wtn172idePt-1">
          <mxGeometry x="700" y="920" width="20" height="20" as="geometry" />
        </mxCell>
        <mxCell id="Fj-yUUgYOXFMrO8vr5FW-584" value="" style="whiteSpace=wrap;html=1;aspect=fixed;strokeColor=#000000;strokeWidth=2;fillColor=none;fontSize=20;" vertex="1" parent="pFoKC1mQ5wtn172idePt-1">
          <mxGeometry x="720" y="920" width="20" height="20" as="geometry" />
        </mxCell>
        <mxCell id="Fj-yUUgYOXFMrO8vr5FW-585" value="" style="whiteSpace=wrap;html=1;aspect=fixed;strokeColor=#000000;strokeWidth=2;fillColor=none;fontSize=20;" vertex="1" parent="pFoKC1mQ5wtn172idePt-1">
          <mxGeometry x="740" y="920" width="20" height="20" as="geometry" />
        </mxCell>
        <mxCell id="Fj-yUUgYOXFMrO8vr5FW-586" value="" style="whiteSpace=wrap;html=1;aspect=fixed;strokeColor=#000000;strokeWidth=2;fillColor=none;fontSize=20;" vertex="1" parent="pFoKC1mQ5wtn172idePt-1">
          <mxGeometry x="760" y="920" width="20" height="20" as="geometry" />
        </mxCell>
        <mxCell id="Fj-yUUgYOXFMrO8vr5FW-587" value="" style="whiteSpace=wrap;html=1;aspect=fixed;strokeColor=#000000;strokeWidth=2;fillColor=none;fontSize=20;" vertex="1" parent="pFoKC1mQ5wtn172idePt-1">
          <mxGeometry x="780" y="920" width="20" height="20" as="geometry" />
        </mxCell>
        <mxCell id="Fj-yUUgYOXFMrO8vr5FW-588" value="" style="whiteSpace=wrap;html=1;aspect=fixed;strokeColor=#000000;strokeWidth=2;fillColor=none;fontSize=20;" vertex="1" parent="pFoKC1mQ5wtn172idePt-1">
          <mxGeometry x="800" y="920" width="20" height="20" as="geometry" />
        </mxCell>
        <mxCell id="Fj-yUUgYOXFMrO8vr5FW-589" value="" style="whiteSpace=wrap;html=1;aspect=fixed;strokeColor=#000000;strokeWidth=2;fillColor=none;fontSize=20;" vertex="1" parent="pFoKC1mQ5wtn172idePt-1">
          <mxGeometry x="820" y="920" width="20" height="20" as="geometry" />
        </mxCell>
        <mxCell id="Fj-yUUgYOXFMrO8vr5FW-590" value="" style="whiteSpace=wrap;html=1;aspect=fixed;strokeColor=#000000;strokeWidth=2;fillColor=none;fontSize=20;" vertex="1" parent="pFoKC1mQ5wtn172idePt-1">
          <mxGeometry x="840" y="920" width="20" height="20" as="geometry" />
        </mxCell>
        <mxCell id="Fj-yUUgYOXFMrO8vr5FW-591" value="" style="whiteSpace=wrap;html=1;aspect=fixed;strokeColor=#000000;strokeWidth=2;fillColor=none;fontSize=20;" vertex="1" parent="pFoKC1mQ5wtn172idePt-1">
          <mxGeometry x="860" y="920" width="20" height="20" as="geometry" />
        </mxCell>
        <mxCell id="Fj-yUUgYOXFMrO8vr5FW-592" value="" style="whiteSpace=wrap;html=1;aspect=fixed;strokeColor=#000000;strokeWidth=2;fillColor=none;fontSize=20;" vertex="1" parent="pFoKC1mQ5wtn172idePt-1">
          <mxGeometry x="880" y="920" width="20" height="20" as="geometry" />
        </mxCell>
        <mxCell id="Fj-yUUgYOXFMrO8vr5FW-593" value="" style="whiteSpace=wrap;html=1;aspect=fixed;strokeColor=#000000;strokeWidth=2;fillColor=none;fontSize=20;" vertex="1" parent="pFoKC1mQ5wtn172idePt-1">
          <mxGeometry x="900" y="920" width="20" height="20" as="geometry" />
        </mxCell>
        <mxCell id="Fj-yUUgYOXFMrO8vr5FW-594" value="" style="whiteSpace=wrap;html=1;aspect=fixed;strokeColor=#000000;strokeWidth=2;fillColor=none;fontSize=20;" vertex="1" parent="pFoKC1mQ5wtn172idePt-1">
          <mxGeometry x="920" y="920" width="20" height="20" as="geometry" />
        </mxCell>
        <mxCell id="Fj-yUUgYOXFMrO8vr5FW-595" value="" style="whiteSpace=wrap;html=1;aspect=fixed;strokeColor=#000000;strokeWidth=2;fillColor=none;fontSize=20;" vertex="1" parent="pFoKC1mQ5wtn172idePt-1">
          <mxGeometry x="940" y="920" width="20" height="20" as="geometry" />
        </mxCell>
        <mxCell id="Fj-yUUgYOXFMrO8vr5FW-596" value="" style="whiteSpace=wrap;html=1;aspect=fixed;strokeColor=#000000;strokeWidth=2;fillColor=none;fontSize=20;" vertex="1" parent="pFoKC1mQ5wtn172idePt-1">
          <mxGeometry x="960" y="920" width="20" height="20" as="geometry" />
        </mxCell>
        <mxCell id="Fj-yUUgYOXFMrO8vr5FW-597" value="" style="whiteSpace=wrap;html=1;aspect=fixed;strokeColor=#000000;strokeWidth=2;fillColor=none;fontSize=20;" vertex="1" parent="pFoKC1mQ5wtn172idePt-1">
          <mxGeometry x="980" y="920" width="20" height="20" as="geometry" />
        </mxCell>
        <mxCell id="Fj-yUUgYOXFMrO8vr5FW-598" value="" style="whiteSpace=wrap;html=1;aspect=fixed;strokeColor=#000000;strokeWidth=2;fillColor=none;fontSize=20;" vertex="1" parent="pFoKC1mQ5wtn172idePt-1">
          <mxGeometry x="680" y="940" width="20" height="20" as="geometry" />
        </mxCell>
        <mxCell id="Fj-yUUgYOXFMrO8vr5FW-599" value="" style="whiteSpace=wrap;html=1;aspect=fixed;strokeColor=#000000;strokeWidth=2;fillColor=none;fontSize=20;" vertex="1" parent="pFoKC1mQ5wtn172idePt-1">
          <mxGeometry x="700" y="940" width="20" height="20" as="geometry" />
        </mxCell>
        <mxCell id="Fj-yUUgYOXFMrO8vr5FW-600" value="" style="whiteSpace=wrap;html=1;aspect=fixed;strokeColor=#000000;strokeWidth=2;fillColor=none;fontSize=20;" vertex="1" parent="pFoKC1mQ5wtn172idePt-1">
          <mxGeometry x="720" y="940" width="20" height="20" as="geometry" />
        </mxCell>
        <mxCell id="Fj-yUUgYOXFMrO8vr5FW-601" value="" style="whiteSpace=wrap;html=1;aspect=fixed;strokeColor=#000000;strokeWidth=2;fillColor=none;fontSize=20;" vertex="1" parent="pFoKC1mQ5wtn172idePt-1">
          <mxGeometry x="740" y="940" width="20" height="20" as="geometry" />
        </mxCell>
        <mxCell id="Fj-yUUgYOXFMrO8vr5FW-602" value="" style="whiteSpace=wrap;html=1;aspect=fixed;strokeColor=#000000;strokeWidth=2;fillColor=none;fontSize=20;" vertex="1" parent="pFoKC1mQ5wtn172idePt-1">
          <mxGeometry x="760" y="940" width="20" height="20" as="geometry" />
        </mxCell>
        <mxCell id="Fj-yUUgYOXFMrO8vr5FW-603" value="" style="whiteSpace=wrap;html=1;aspect=fixed;strokeColor=#000000;strokeWidth=2;fillColor=none;fontSize=20;" vertex="1" parent="pFoKC1mQ5wtn172idePt-1">
          <mxGeometry x="780" y="940" width="20" height="20" as="geometry" />
        </mxCell>
        <mxCell id="Fj-yUUgYOXFMrO8vr5FW-604" value="" style="whiteSpace=wrap;html=1;aspect=fixed;strokeColor=#000000;strokeWidth=2;fillColor=none;fontSize=20;" vertex="1" parent="pFoKC1mQ5wtn172idePt-1">
          <mxGeometry x="800" y="940" width="20" height="20" as="geometry" />
        </mxCell>
        <mxCell id="Fj-yUUgYOXFMrO8vr5FW-605" value="" style="whiteSpace=wrap;html=1;aspect=fixed;strokeColor=#000000;strokeWidth=2;fillColor=none;fontSize=20;" vertex="1" parent="pFoKC1mQ5wtn172idePt-1">
          <mxGeometry x="820" y="940" width="20" height="20" as="geometry" />
        </mxCell>
        <mxCell id="Fj-yUUgYOXFMrO8vr5FW-606" value="" style="whiteSpace=wrap;html=1;aspect=fixed;strokeColor=#000000;strokeWidth=2;fillColor=none;fontSize=20;" vertex="1" parent="pFoKC1mQ5wtn172idePt-1">
          <mxGeometry x="840" y="940" width="20" height="20" as="geometry" />
        </mxCell>
        <mxCell id="Fj-yUUgYOXFMrO8vr5FW-607" value="" style="whiteSpace=wrap;html=1;aspect=fixed;strokeColor=#000000;strokeWidth=2;fillColor=none;fontSize=20;" vertex="1" parent="pFoKC1mQ5wtn172idePt-1">
          <mxGeometry x="860" y="940" width="20" height="20" as="geometry" />
        </mxCell>
        <mxCell id="Fj-yUUgYOXFMrO8vr5FW-608" value="" style="whiteSpace=wrap;html=1;aspect=fixed;strokeColor=#000000;strokeWidth=2;fillColor=none;fontSize=20;" vertex="1" parent="pFoKC1mQ5wtn172idePt-1">
          <mxGeometry x="880" y="940" width="20" height="20" as="geometry" />
        </mxCell>
        <mxCell id="Fj-yUUgYOXFMrO8vr5FW-609" value="" style="whiteSpace=wrap;html=1;aspect=fixed;strokeColor=#000000;strokeWidth=2;fillColor=none;fontSize=20;" vertex="1" parent="pFoKC1mQ5wtn172idePt-1">
          <mxGeometry x="900" y="940" width="20" height="20" as="geometry" />
        </mxCell>
        <mxCell id="Fj-yUUgYOXFMrO8vr5FW-610" value="" style="whiteSpace=wrap;html=1;aspect=fixed;strokeColor=#000000;strokeWidth=2;fillColor=none;fontSize=20;" vertex="1" parent="pFoKC1mQ5wtn172idePt-1">
          <mxGeometry x="920" y="940" width="20" height="20" as="geometry" />
        </mxCell>
        <mxCell id="Fj-yUUgYOXFMrO8vr5FW-611" value="" style="whiteSpace=wrap;html=1;aspect=fixed;strokeColor=#000000;strokeWidth=2;fillColor=none;fontSize=20;" vertex="1" parent="pFoKC1mQ5wtn172idePt-1">
          <mxGeometry x="940" y="940" width="20" height="20" as="geometry" />
        </mxCell>
        <mxCell id="Fj-yUUgYOXFMrO8vr5FW-612" value="" style="whiteSpace=wrap;html=1;aspect=fixed;strokeColor=#000000;strokeWidth=2;fillColor=none;fontSize=20;" vertex="1" parent="pFoKC1mQ5wtn172idePt-1">
          <mxGeometry x="960" y="940" width="20" height="20" as="geometry" />
        </mxCell>
        <mxCell id="Fj-yUUgYOXFMrO8vr5FW-613" value="" style="whiteSpace=wrap;html=1;aspect=fixed;strokeColor=#000000;strokeWidth=2;fillColor=none;fontSize=20;" vertex="1" parent="pFoKC1mQ5wtn172idePt-1">
          <mxGeometry x="980" y="940" width="20" height="20" as="geometry" />
        </mxCell>
      </root>
    </mxGraphModel>
  </diagram>
</mxfile>
